<?xml version="1.0" encoding="UTF-8" standalone="no"?>
<!DOCTYPE svg PUBLIC "-//W3C//DTD SVG 1.1//EN"
 "http://www.w3.org/Graphics/SVG/1.1/DTD/svg11.dtd">
<!-- Generated by graphviz version 2.42.3 (20191010.1750)
 -->
<!-- Title: snakemake_dag Pages: 1 -->
<svg width="143pt" height="404pt"
 viewBox="0.00 0.00 142.50 404.00" xmlns="http://www.w3.org/2000/svg" xmlns:xlink="http://www.w3.org/1999/xlink">
<g id="graph0" class="graph" transform="scale(1 1) rotate(0) translate(4 400)">
<title>snakemake_dag</title>
<polygon fill="white" stroke="transparent" points="-4,4 -4,-400 138.5,-400 138.5,4 -4,4"/>
<!-- 0 -->
<g id="node1" class="node">
<title>0</title>
<path fill="none" stroke="#d6d856" stroke-width="2" stroke-dasharray="5,2" d="M54,-36C54,-36 17,-36 17,-36 11,-36 5,-30 5,-24 5,-24 5,-12 5,-12 5,-6 11,0 17,0 17,0 54,0 54,0 60,0 66,-6 66,-12 66,-12 66,-24 66,-24 66,-30 60,-36 54,-36"/>
<text text-anchor="middle" x="35.5" y="-15.5" font-family="sans" font-size="10.00">NanoPlot</text>
</g>
<!-- 1 -->
<g id="node2" class="node">
<title>1</title>
<path fill="none" stroke="#d85656" stroke-width="2" stroke-dasharray="5,2" d="M59,-108C59,-108 12,-108 12,-108 6,-108 0,-102 0,-96 0,-96 0,-84 0,-84 0,-78 6,-72 12,-72 12,-72 59,-72 59,-72 65,-72 71,-78 71,-84 71,-84 71,-96 71,-96 71,-102 65,-108 59,-108"/>
<text text-anchor="middle" x="35.5" y="-87.5" font-family="sans" font-size="10.00">bam_index</text>
</g>
<!-- 1&#45;&gt;0 -->
<g id="edge1" class="edge">
<title>1&#45;&gt;0</title>
<path fill="none" stroke="grey" stroke-width="2" d="M35.5,-71.7C35.5,-63.98 35.5,-54.71 35.5,-46.11"/>
<polygon fill="grey" stroke="grey" stroke-width="2" points="39,-46.1 35.5,-36.1 32,-46.1 39,-46.1"/>
</g>
<!-- 2 -->
<g id="node3" class="node">
<title>2</title>
<path fill="none" stroke="#56d8d8" stroke-width="2" stroke-dasharray="5,2" d="M50.5,-180C50.5,-180 20.5,-180 20.5,-180 14.5,-180 8.5,-174 8.5,-168 8.5,-168 8.5,-156 8.5,-156 8.5,-150 14.5,-144 20.5,-144 20.5,-144 50.5,-144 50.5,-144 56.5,-144 62.5,-150 62.5,-156 62.5,-156 62.5,-168 62.5,-168 62.5,-174 56.5,-180 50.5,-180"/>
<text text-anchor="middle" x="35.5" y="-159.5" font-family="sans" font-size="10.00">vulcan</text>
</g>
<!-- 2&#45;&gt;1 -->
<g id="edge2" class="edge">
<title>2&#45;&gt;1</title>
<path fill="none" stroke="grey" stroke-width="2" d="M35.5,-143.7C35.5,-135.98 35.5,-126.71 35.5,-118.11"/>
<polygon fill="grey" stroke="grey" stroke-width="2" points="39,-118.1 35.5,-108.1 32,-118.1 39,-118.1"/>
</g>
<!-- 3 -->
<g id="node4" class="node">
<title>3</title>
<path fill="none" stroke="#59d856" stroke-width="2" stroke-dasharray="5,2" d="M86.5,-252C86.5,-252 56.5,-252 56.5,-252 50.5,-252 44.5,-246 44.5,-240 44.5,-240 44.5,-228 44.5,-228 44.5,-222 50.5,-216 56.5,-216 56.5,-216 86.5,-216 86.5,-216 92.5,-216 98.5,-222 98.5,-228 98.5,-228 98.5,-240 98.5,-240 98.5,-246 92.5,-252 86.5,-252"/>
<text text-anchor="middle" x="71.5" y="-231.5" font-family="sans" font-size="10.00">nanofilt</text>
</g>
<!-- 3&#45;&gt;2 -->
<g id="edge3" class="edge">
<title>3&#45;&gt;2</title>
<path fill="none" stroke="grey" stroke-width="2" d="M62.6,-215.7C58.5,-207.73 53.55,-198.1 49.01,-189.26"/>
<polygon fill="grey" stroke="grey" stroke-width="2" points="51.98,-187.4 44.3,-180.1 45.76,-190.6 51.98,-187.4"/>
</g>
<!-- 6 -->
<g id="node7" class="node">
<title>6</title>
<path fill="none" stroke="#569ad8" stroke-width="2" stroke-dasharray="5,2" d="M122.5,-180C122.5,-180 92.5,-180 92.5,-180 86.5,-180 80.5,-174 80.5,-168 80.5,-168 80.5,-156 80.5,-156 80.5,-150 86.5,-144 92.5,-144 92.5,-144 122.5,-144 122.5,-144 128.5,-144 134.5,-150 134.5,-156 134.5,-156 134.5,-168 134.5,-168 134.5,-174 128.5,-180 122.5,-180"/>
<text text-anchor="middle" x="107.5" y="-159.5" font-family="sans" font-size="10.00">fastqc</text>
</g>
<!-- 3&#45;&gt;6 -->
<g id="edge6" class="edge">
<title>3&#45;&gt;6</title>
<path fill="none" stroke="grey" stroke-width="2" d="M80.4,-215.7C84.5,-207.73 89.45,-198.1 93.99,-189.26"/>
<polygon fill="grey" stroke="grey" stroke-width="2" points="97.24,-190.6 98.7,-180.1 91.02,-187.4 97.24,-190.6"/>
</g>
<!-- 4 -->
<g id="node5" class="node">
<title>4</title>
<path fill="none" stroke="#d89556" stroke-width="2" stroke-dasharray="5,2" d="M90.5,-324C90.5,-324 52.5,-324 52.5,-324 46.5,-324 40.5,-318 40.5,-312 40.5,-312 40.5,-300 40.5,-300 40.5,-294 46.5,-288 52.5,-288 52.5,-288 90.5,-288 90.5,-288 96.5,-288 102.5,-294 102.5,-300 102.5,-300 102.5,-312 102.5,-312 102.5,-318 96.5,-324 90.5,-324"/>
<text text-anchor="middle" x="71.5" y="-303.5" font-family="sans" font-size="10.00">porechop</text>
</g>
<!-- 4&#45;&gt;3 -->
<g id="edge4" class="edge">
<title>4&#45;&gt;3</title>
<path fill="none" stroke="grey" stroke-width="2" d="M71.5,-287.7C71.5,-279.98 71.5,-270.71 71.5,-262.11"/>
<polygon fill="grey" stroke="grey" stroke-width="2" points="75,-262.1 71.5,-252.1 68,-262.1 75,-262.1"/>
</g>
<!-- 5 -->
<g id="node6" class="node">
<title>5</title>
<path fill="none" stroke="#97d856" stroke-width="2" stroke-dasharray="5,2" d="M92,-396C92,-396 51,-396 51,-396 45,-396 39,-390 39,-384 39,-384 39,-372 39,-372 39,-366 45,-360 51,-360 51,-360 92,-360 92,-360 98,-360 104,-366 104,-372 104,-372 104,-384 104,-384 104,-390 98,-396 92,-396"/>
<text text-anchor="middle" x="71.5" y="-381" font-family="sans" font-size="10.00">prep_data</text>
<text text-anchor="middle" x="71.5" y="-370" font-family="sans" font-size="10.00">sample: A</text>
</g>
<!-- 5&#45;&gt;4 -->
<g id="edge5" class="edge">
<title>5&#45;&gt;4</title>
<path fill="none" stroke="grey" stroke-width="2" d="M71.5,-359.7C71.5,-351.98 71.5,-342.71 71.5,-334.11"/>
<polygon fill="grey" stroke="grey" stroke-width="2" points="75,-334.1 71.5,-324.1 68,-334.1 75,-334.1"/>
</g>
</g>
</svg>
