<?xml version="1.0" encoding="UTF-8" standalone="no"?>
<!DOCTYPE svg PUBLIC "-//W3C//DTD SVG 1.1//EN"
 "http://www.w3.org/Graphics/SVG/1.1/DTD/svg11.dtd">
<!-- Generated by graphviz version 3.0.0 (20220227.1548)
 -->
<!-- Title: snakemake_dag Pages: 1 -->
<svg width="212pt" height="116pt"
 viewBox="0.00 0.00 212.00 116.00" xmlns="http://www.w3.org/2000/svg" xmlns:xlink="http://www.w3.org/1999/xlink">
<g id="graph0" class="graph" transform="scale(1 1) rotate(0) translate(4 112)">
<title>snakemake_dag</title>
<polygon fill="white" stroke="transparent" points="-4,4 -4,-112 208,-112 208,4 -4,4"/>
<!-- 0 -->
<g id="node1" class="node">
<title>0</title>
<path fill="none" stroke="#59d856" stroke-width="2" d="M121,-36C121,-36 83,-36 83,-36 77,-36 71,-30 71,-24 71,-24 71,-12 71,-12 71,-6 77,0 83,0 83,0 121,0 121,0 127,0 133,-6 133,-12 133,-12 133,-24 133,-24 133,-30 127,-36 121,-36"/>
<text text-anchor="middle" x="102" y="-15.5" font-family="sans" font-size="10.00">porechop</text>
</g>
<!-- 1 -->
<g id="node2" class="node">
<title>1</title>
<path fill="none" stroke="#d85656" stroke-width="2" d="M192,-108C192,-108 12,-108 12,-108 6,-108 0,-102 0,-96 0,-96 0,-84 0,-84 0,-78 6,-72 12,-72 12,-72 192,-72 192,-72 198,-72 204,-78 204,-84 204,-84 204,-96 204,-96 204,-102 198,-108 192,-108"/>
<text text-anchor="middle" x="102" y="-93" font-family="sans" font-size="10.00">prep_data</text>
<text text-anchor="middle" x="102" y="-82" font-family="sans" font-size="10.00">sample: FAR12603_pass_255c3309_11</text>
</g>
<!-- 1&#45;&gt;0 -->
<g id="edge1" class="edge">
<title>1&#45;&gt;0</title>
<path fill="none" stroke="grey" stroke-width="2" d="M102,-71.7C102,-63.98 102,-54.71 102,-46.11"/>
<polygon fill="grey" stroke="grey" stroke-width="2" points="105.5,-46.1 102,-36.1 98.5,-46.1 105.5,-46.1"/>
</g>
</g>
</svg>
