<?xml version="1.0" encoding="UTF-8" standalone="no"?>
<!DOCTYPE svg PUBLIC "-//W3C//DTD SVG 1.1//EN"
 "http://www.w3.org/Graphics/SVG/1.1/DTD/svg11.dtd">
<!-- Generated by graphviz version 2.40.1 (20161225.0304)
 -->
<!-- Title: snakemake_dag Pages: 1 -->
<svg width="464pt" height="548pt"
 viewBox="0.00 0.00 464.00 548.00" xmlns="http://www.w3.org/2000/svg" xmlns:xlink="http://www.w3.org/1999/xlink">
<g id="graph0" class="graph" transform="scale(1 1) rotate(0) translate(4 544)">
<title>snakemake_dag</title>
<polygon fill="#ffffff" stroke="transparent" points="-4,4 -4,-544 460,-544 460,4 -4,4"/>
<!-- 0 -->
<g id="node1" class="node">
<title>0</title>
<path fill="none" stroke="#5682d8" stroke-width="2" stroke-dasharray="5,2" d="M236,-36C236,-36 206,-36 206,-36 200,-36 194,-30 194,-24 194,-24 194,-12 194,-12 194,-6 200,0 206,0 206,0 236,0 236,0 242,0 248,-6 248,-12 248,-12 248,-24 248,-24 248,-30 242,-36 236,-36"/>
<text text-anchor="middle" x="221" y="-15.5" font-family="sans" font-size="10.00" fill="#000000">all</text>
</g>
<!-- 1 -->
<g id="node2" class="node">
<title>1</title>
<path fill="none" stroke="#d85656" stroke-width="2" stroke-dasharray="5,2" d="M444,-180C444,-180 414,-180 414,-180 408,-180 402,-174 402,-168 402,-168 402,-156 402,-156 402,-150 408,-144 414,-144 414,-144 444,-144 444,-144 450,-144 456,-150 456,-156 456,-156 456,-168 456,-168 456,-174 450,-180 444,-180"/>
<text text-anchor="middle" x="429" y="-159.5" font-family="sans" font-size="10.00" fill="#000000">fastqc</text>
</g>
<!-- 1&#45;&gt;0 -->
<g id="edge1" class="edge">
<title>1&#45;&gt;0</title>
<path fill="none" stroke="#c0c0c0" stroke-width="2" d="M416.5358,-143.9683C402.0272,-124.0987 376.4004,-92.2757 348,-72 320.335,-52.2493 284.3275,-37.8049 257.7212,-28.8514"/>
<polygon fill="#c0c0c0" stroke="#c0c0c0" stroke-width="2" points="258.6138,-25.4612 248.0214,-25.6891 256.444,-32.1164 258.6138,-25.4612"/>
</g>
<!-- 10 -->
<g id="node11" class="node">
<title>10</title>
<path fill="none" stroke="#d88556" stroke-width="2" stroke-dasharray="5,2" d="M327.5,-108C327.5,-108 240.5,-108 240.5,-108 234.5,-108 228.5,-102 228.5,-96 228.5,-96 228.5,-84 228.5,-84 228.5,-78 234.5,-72 240.5,-72 240.5,-72 327.5,-72 327.5,-72 333.5,-72 339.5,-78 339.5,-84 339.5,-84 339.5,-96 339.5,-96 339.5,-102 333.5,-108 327.5,-108"/>
<text text-anchor="middle" x="284" y="-87.5" font-family="sans" font-size="10.00" fill="#000000">mm2_bench_report</text>
</g>
<!-- 1&#45;&gt;10 -->
<g id="edge13" class="edge">
<title>1&#45;&gt;10</title>
<path fill="none" stroke="#c0c0c0" stroke-width="2" d="M401.7266,-148.4574C381.4481,-138.388 353.3098,-124.4159 329.6275,-112.6564"/>
<polygon fill="#c0c0c0" stroke="#c0c0c0" stroke-width="2" points="330.9741,-109.4174 320.4609,-108.1047 327.8609,-115.687 330.9741,-109.4174"/>
</g>
<!-- 2 -->
<g id="node3" class="node">
<title>2</title>
<path fill="none" stroke="#afd856" stroke-width="2" stroke-dasharray="5,2" d="M331,-396C331,-396 301,-396 301,-396 295,-396 289,-390 289,-384 289,-384 289,-372 289,-372 289,-366 295,-360 301,-360 301,-360 331,-360 331,-360 337,-360 343,-366 343,-372 343,-372 343,-384 343,-384 343,-390 337,-396 331,-396"/>
<text text-anchor="middle" x="316" y="-375.5" font-family="sans" font-size="10.00" fill="#000000">nanofilt</text>
</g>
<!-- 2&#45;&gt;1 -->
<g id="edge5" class="edge">
<title>2&#45;&gt;1</title>
<path fill="none" stroke="#c0c0c0" stroke-width="2" d="M325.44,-359.9555C345.2565,-322.0762 391.2905,-234.0818 414.7316,-189.274"/>
<polygon fill="#c0c0c0" stroke="#c0c0c0" stroke-width="2" points="417.9732,-190.6282 419.5074,-180.1451 411.7707,-187.3834 417.9732,-190.6282"/>
</g>
<!-- 5 -->
<g id="node6" class="node">
<title>5</title>
<path fill="none" stroke="#56d882" stroke-width="2" stroke-dasharray="5,2" d="M90,-180C90,-180 12,-180 12,-180 6,-180 0,-174 0,-168 0,-168 0,-156 0,-156 0,-150 6,-144 12,-144 12,-144 90,-144 90,-144 96,-144 102,-150 102,-156 102,-156 102,-168 102,-168 102,-174 96,-180 90,-180"/>
<text text-anchor="middle" x="51" y="-159.5" font-family="sans" font-size="10.00" fill="#000000">pre_aln_NanoPlot</text>
</g>
<!-- 2&#45;&gt;5 -->
<g id="edge8" class="edge">
<title>2&#45;&gt;5</title>
<path fill="none" stroke="#c0c0c0" stroke-width="2" d="M288.8863,-366.5314C267.3225,-356.7799 236.9097,-341.5849 213,-324 156.7872,-282.6571 101.5391,-221.8984 72.3327,-187.7509"/>
<polygon fill="#c0c0c0" stroke="#c0c0c0" stroke-width="2" points="74.9606,-185.4382 65.8235,-180.075 69.6218,-189.9656 74.9606,-185.4382"/>
</g>
<!-- 9 -->
<g id="node10" class="node">
<title>9</title>
<path fill="none" stroke="#56d8d8" stroke-width="2" stroke-dasharray="5,2" d="M276,-324C276,-324 234,-324 234,-324 228,-324 222,-318 222,-312 222,-312 222,-300 222,-300 222,-294 228,-288 234,-288 234,-288 276,-288 276,-288 282,-288 288,-294 288,-300 288,-300 288,-312 288,-312 288,-318 282,-324 276,-324"/>
<text text-anchor="middle" x="255" y="-303.5" font-family="sans" font-size="10.00" fill="#000000">minimap2</text>
</g>
<!-- 2&#45;&gt;9 -->
<g id="edge12" class="edge">
<title>2&#45;&gt;9</title>
<path fill="none" stroke="#c0c0c0" stroke-width="2" d="M300.6071,-359.8314C293.5096,-351.454 284.952,-341.3531 277.176,-332.1749"/>
<polygon fill="#c0c0c0" stroke="#c0c0c0" stroke-width="2" points="279.7348,-329.7807 270.6001,-324.4133 274.3939,-334.3056 279.7348,-329.7807"/>
</g>
<!-- 2&#45;&gt;10 -->
<g id="edge16" class="edge">
<title>2&#45;&gt;10</title>
<path fill="none" stroke="#c0c0c0" stroke-width="2" d="M313.9983,-359.9843C308.5882,-311.2939 293.644,-176.7961 287.1175,-118.0573"/>
<polygon fill="#c0c0c0" stroke="#c0c0c0" stroke-width="2" points="290.584,-117.5612 286.001,-108.0089 283.6268,-118.3343 290.584,-117.5612"/>
</g>
<!-- 3 -->
<g id="node4" class="node">
<title>3</title>
<path fill="none" stroke="#80d856" stroke-width="2" stroke-dasharray="5,2" d="M435.5,-468C435.5,-468 272.5,-468 272.5,-468 266.5,-468 260.5,-462 260.5,-456 260.5,-456 260.5,-444 260.5,-444 260.5,-438 266.5,-432 272.5,-432 272.5,-432 435.5,-432 435.5,-432 441.5,-432 447.5,-438 447.5,-444 447.5,-444 447.5,-456 447.5,-456 447.5,-462 441.5,-468 435.5,-468"/>
<text text-anchor="middle" x="354" y="-453" font-family="sans" font-size="10.00" fill="#000000">porechop</text>
<text text-anchor="middle" x="354" y="-442" font-family="sans" font-size="10.00" fill="#000000">sample: FAR12603_pass_255c3309</text>
</g>
<!-- 3&#45;&gt;2 -->
<g id="edge6" class="edge">
<title>3&#45;&gt;2</title>
<path fill="none" stroke="#c0c0c0" stroke-width="2" d="M344.411,-431.8314C340.1683,-423.7925 335.0879,-414.1666 330.404,-405.2918"/>
<polygon fill="#c0c0c0" stroke="#c0c0c0" stroke-width="2" points="333.4811,-403.6235 325.7181,-396.4133 327.2904,-406.8908 333.4811,-403.6235"/>
</g>
<!-- 3&#45;&gt;10 -->
<g id="edge19" class="edge">
<title>3&#45;&gt;10</title>
<path fill="none" stroke="#c0c0c0" stroke-width="2" d="M354.5952,-431.6592C354.9515,-413.4231 354.8767,-384.6828 352,-360 340.6375,-262.5071 334.8516,-237.8166 306,-144 303.3052,-135.2372 299.7638,-125.9164 296.312,-117.529"/>
<polygon fill="#c0c0c0" stroke="#c0c0c0" stroke-width="2" points="299.483,-116.0415 292.3572,-108.201 293.0383,-118.7739 299.483,-116.0415"/>
</g>
<!-- 4 -->
<g id="node5" class="node">
<title>4</title>
<path fill="none" stroke="#56a9d8" stroke-width="2" stroke-dasharray="5,2" d="M374.5,-540C374.5,-540 333.5,-540 333.5,-540 327.5,-540 321.5,-534 321.5,-528 321.5,-528 321.5,-516 321.5,-516 321.5,-510 327.5,-504 333.5,-504 333.5,-504 374.5,-504 374.5,-504 380.5,-504 386.5,-510 386.5,-516 386.5,-516 386.5,-528 386.5,-528 386.5,-534 380.5,-540 374.5,-540"/>
<text text-anchor="middle" x="354" y="-519.5" font-family="sans" font-size="10.00" fill="#000000">prep_data</text>
</g>
<!-- 4&#45;&gt;3 -->
<g id="edge7" class="edge">
<title>4&#45;&gt;3</title>
<path fill="none" stroke="#c0c0c0" stroke-width="2" d="M354,-503.8314C354,-496.131 354,-486.9743 354,-478.4166"/>
<polygon fill="#c0c0c0" stroke="#c0c0c0" stroke-width="2" points="357.5001,-478.4132 354,-468.4133 350.5001,-478.4133 357.5001,-478.4132"/>
</g>
<!-- 5&#45;&gt;0 -->
<g id="edge2" class="edge">
<title>5&#45;&gt;0</title>
<path fill="none" stroke="#c0c0c0" stroke-width="2" d="M56.4159,-143.8587C63.2064,-123.8909 76.6219,-91.9801 98,-72 122.2489,-49.3369 157.5506,-35.1828 184.1217,-27.0812"/>
<polygon fill="#c0c0c0" stroke="#c0c0c0" stroke-width="2" points="185.2051,-30.4113 193.8365,-24.2673 183.2576,-23.6876 185.2051,-30.4113"/>
</g>
<!-- 5&#45;&gt;10 -->
<g id="edge18" class="edge">
<title>5&#45;&gt;10</title>
<path fill="none" stroke="#c0c0c0" stroke-width="2" d="M102.1328,-146.1993C136.3187,-135.6354 181.6076,-121.6406 218.4385,-110.2593"/>
<polygon fill="#c0c0c0" stroke="#c0c0c0" stroke-width="2" points="219.5749,-113.5716 228.0958,-107.2751 217.5082,-106.8836 219.5749,-113.5716"/>
</g>
<!-- 6 -->
<g id="node7" class="node">
<title>6</title>
<path fill="none" stroke="#59d856" stroke-width="2" stroke-dasharray="5,2" d="M198.5,-108C198.5,-108 119.5,-108 119.5,-108 113.5,-108 107.5,-102 107.5,-96 107.5,-96 107.5,-84 107.5,-84 107.5,-78 113.5,-72 119.5,-72 119.5,-72 198.5,-72 198.5,-72 204.5,-72 210.5,-78 210.5,-84 210.5,-84 210.5,-96 210.5,-96 210.5,-102 204.5,-108 198.5,-108"/>
<text text-anchor="middle" x="159" y="-87.5" font-family="sans" font-size="10.00" fill="#000000">mm2_final_report</text>
</g>
<!-- 6&#45;&gt;0 -->
<g id="edge3" class="edge">
<title>6&#45;&gt;0</title>
<path fill="none" stroke="#c0c0c0" stroke-width="2" d="M174.6452,-71.8314C181.8591,-63.454 190.557,-53.3531 198.4605,-44.1749"/>
<polygon fill="#c0c0c0" stroke="#c0c0c0" stroke-width="2" points="201.2711,-46.2748 205.1441,-36.4133 195.9667,-41.7071 201.2711,-46.2748"/>
</g>
<!-- 7 -->
<g id="node8" class="node">
<title>7</title>
<path fill="none" stroke="#d6d856" stroke-width="2" stroke-dasharray="5,2" d="M200,-180C200,-180 132,-180 132,-180 126,-180 120,-174 120,-168 120,-168 120,-156 120,-156 120,-150 126,-144 132,-144 132,-144 200,-144 200,-144 206,-144 212,-150 212,-156 212,-156 212,-168 212,-168 212,-174 206,-180 200,-180"/>
<text text-anchor="middle" x="166" y="-159.5" font-family="sans" font-size="10.00" fill="#000000">mm2_NanoPlot</text>
</g>
<!-- 7&#45;&gt;6 -->
<g id="edge9" class="edge">
<title>7&#45;&gt;6</title>
<path fill="none" stroke="#c0c0c0" stroke-width="2" d="M164.2336,-143.8314C163.485,-136.131 162.5947,-126.9743 161.7627,-118.4166"/>
<polygon fill="#c0c0c0" stroke="#c0c0c0" stroke-width="2" points="165.2415,-118.0276 160.7902,-108.4133 158.2744,-118.7051 165.2415,-118.0276"/>
</g>
<!-- 7&#45;&gt;10 -->
<g id="edge17" class="edge">
<title>7&#45;&gt;10</title>
<path fill="none" stroke="#c0c0c0" stroke-width="2" d="M195.7764,-143.8314C210.8693,-134.6221 229.3757,-123.3301 245.5343,-113.4706"/>
<polygon fill="#c0c0c0" stroke="#c0c0c0" stroke-width="2" points="247.5198,-116.3593 254.2331,-108.1628 243.8737,-110.3838 247.5198,-116.3593"/>
</g>
<!-- 8 -->
<g id="node9" class="node">
<title>8</title>
<path fill="none" stroke="#56d8a9" stroke-width="2" stroke-dasharray="5,2" d="M238,-252C238,-252 182,-252 182,-252 176,-252 170,-246 170,-240 170,-240 170,-228 170,-228 170,-222 176,-216 182,-216 182,-216 238,-216 238,-216 244,-216 250,-222 250,-228 250,-228 250,-240 250,-240 250,-246 244,-252 238,-252"/>
<text text-anchor="middle" x="210" y="-231.5" font-family="sans" font-size="10.00" fill="#000000">sam_to_bam</text>
</g>
<!-- 8&#45;&gt;7 -->
<g id="edge10" class="edge">
<title>8&#45;&gt;7</title>
<path fill="none" stroke="#c0c0c0" stroke-width="2" d="M198.8969,-215.8314C193.9326,-207.7079 187.9778,-197.9637 182.5072,-189.0118"/>
<polygon fill="#c0c0c0" stroke="#c0c0c0" stroke-width="2" points="185.4536,-187.121 177.2526,-180.4133 179.4806,-190.7712 185.4536,-187.121"/>
</g>
<!-- 8&#45;&gt;10 -->
<g id="edge15" class="edge">
<title>8&#45;&gt;10</title>
<path fill="none" stroke="#c0c0c0" stroke-width="2" d="M219.3722,-215.7623C232.1607,-190.8764 255.18,-146.0822 270.0138,-117.2165"/>
<polygon fill="#c0c0c0" stroke="#c0c0c0" stroke-width="2" points="273.2462,-118.5837 274.7039,-108.0896 267.0202,-115.3842 273.2462,-118.5837"/>
</g>
<!-- 9&#45;&gt;8 -->
<g id="edge11" class="edge">
<title>9&#45;&gt;8</title>
<path fill="none" stroke="#c0c0c0" stroke-width="2" d="M243.6446,-287.8314C238.5674,-279.7079 232.4773,-269.9637 226.8824,-261.0118"/>
<polygon fill="#c0c0c0" stroke="#c0c0c0" stroke-width="2" points="229.7763,-259.0383 221.5083,-252.4133 223.8403,-262.7483 229.7763,-259.0383"/>
</g>
<!-- 9&#45;&gt;10 -->
<g id="edge14" class="edge">
<title>9&#45;&gt;10</title>
<path fill="none" stroke="#c0c0c0" stroke-width="2" d="M257.4226,-287.9555C262.4763,-250.3144 274.174,-163.1867 280.224,-118.1246"/>
<polygon fill="#c0c0c0" stroke="#c0c0c0" stroke-width="2" points="283.702,-118.5219 281.5639,-108.1451 276.7642,-117.5904 283.702,-118.5219"/>
</g>
<!-- 10&#45;&gt;0 -->
<g id="edge4" class="edge">
<title>10&#45;&gt;0</title>
<path fill="none" stroke="#c0c0c0" stroke-width="2" d="M268.1024,-71.8314C260.7722,-63.454 251.934,-53.3531 243.9031,-44.1749"/>
<polygon fill="#c0c0c0" stroke="#c0c0c0" stroke-width="2" points="246.3307,-41.6343 237.1116,-36.4133 241.0627,-46.2438 246.3307,-41.6343"/>
</g>
</g>
</svg>
