<?xml version="1.0" encoding="UTF-8" standalone="no"?>
<!DOCTYPE svg PUBLIC "-//W3C//DTD SVG 1.1//EN"
 "http://www.w3.org/Graphics/SVG/1.1/DTD/svg11.dtd">
<!-- Generated by graphviz version 2.40.1 (20161225.0304)
 -->
<!-- Title: snakemake_dag Pages: 1 -->
<svg width="538pt" height="476pt"
 viewBox="0.00 0.00 538.00 476.00" xmlns="http://www.w3.org/2000/svg" xmlns:xlink="http://www.w3.org/1999/xlink">
<g id="graph0" class="graph" transform="scale(1 1) rotate(0) translate(4 472)">
<title>snakemake_dag</title>
<polygon fill="#ffffff" stroke="transparent" points="-4,4 -4,-472 534,-472 534,4 -4,4"/>
<!-- 0 -->
<g id="node1" class="node">
<title>0</title>
<path fill="none" stroke="#d88556" stroke-width="2" stroke-dasharray="5,2" d="M196,-36C196,-36 166,-36 166,-36 160,-36 154,-30 154,-24 154,-24 154,-12 154,-12 154,-6 160,0 166,0 166,0 196,0 196,0 202,0 208,-6 208,-12 208,-12 208,-24 208,-24 208,-30 202,-36 196,-36"/>
<text text-anchor="middle" x="181" y="-15.5" font-family="sans" font-size="10.00" fill="#000000">all</text>
</g>
<!-- 1 -->
<g id="node2" class="node">
<title>1</title>
<path fill="none" stroke="#d85656" stroke-width="2" stroke-dasharray="5,2" d="M42,-180C42,-180 12,-180 12,-180 6,-180 0,-174 0,-168 0,-168 0,-156 0,-156 0,-150 6,-144 12,-144 12,-144 42,-144 42,-144 48,-144 54,-150 54,-156 54,-156 54,-168 54,-168 54,-174 48,-180 42,-180"/>
<text text-anchor="middle" x="27" y="-159.5" font-family="sans" font-size="10.00" fill="#000000">fastqc</text>
</g>
<!-- 1&#45;&gt;0 -->
<g id="edge1" class="edge">
<title>1&#45;&gt;0</title>
<path fill="none" stroke="#c0c0c0" stroke-width="2" d="M46.5042,-143.7623C73.8125,-118.2272 123.537,-71.7316 154.274,-42.9906"/>
<polygon fill="#c0c0c0" stroke="#c0c0c0" stroke-width="2" points="156.7404,-45.4761 161.6542,-36.0896 151.9594,-40.3631 156.7404,-45.4761"/>
</g>
<!-- 9 -->
<g id="node10" class="node">
<title>9</title>
<path fill="none" stroke="#56d8c9" stroke-width="2" stroke-dasharray="5,2" d="M279,-108C279,-108 185,-108 185,-108 179,-108 173,-102 173,-96 173,-96 173,-84 173,-84 173,-78 179,-72 185,-72 185,-72 279,-72 279,-72 285,-72 291,-78 291,-84 291,-84 291,-96 291,-96 291,-102 285,-108 279,-108"/>
<text text-anchor="middle" x="232" y="-87.5" font-family="sans" font-size="10.00" fill="#000000">vulcan_bench_report</text>
</g>
<!-- 1&#45;&gt;9 -->
<g id="edge12" class="edge">
<title>1&#45;&gt;9</title>
<path fill="none" stroke="#c0c0c0" stroke-width="2" d="M54.3161,-147.7966C57.2198,-146.4511 60.1522,-145.1589 63,-144 95.3086,-130.8529 132.1034,-118.7704 163.0932,-109.3834"/>
<polygon fill="#c0c0c0" stroke="#c0c0c0" stroke-width="2" points="164.3639,-112.6564 172.9378,-106.4324 162.3539,-105.9512 164.3639,-112.6564"/>
</g>
<!-- 2 -->
<g id="node3" class="node">
<title>2</title>
<path fill="none" stroke="#ced856" stroke-width="2" stroke-dasharray="5,2" d="M200,-324C200,-324 170,-324 170,-324 164,-324 158,-318 158,-312 158,-312 158,-300 158,-300 158,-294 164,-288 170,-288 170,-288 200,-288 200,-288 206,-288 212,-294 212,-300 212,-300 212,-312 212,-312 212,-318 206,-324 200,-324"/>
<text text-anchor="middle" x="185" y="-303.5" font-family="sans" font-size="10.00" fill="#000000">nanofilt</text>
</g>
<!-- 2&#45;&gt;1 -->
<g id="edge5" class="edge">
<title>2&#45;&gt;1</title>
<path fill="none" stroke="#c0c0c0" stroke-width="2" d="M164.9892,-287.7623C136.9716,-262.2272 85.9555,-215.7316 54.4202,-186.9906"/>
<polygon fill="#c0c0c0" stroke="#c0c0c0" stroke-width="2" points="56.5969,-184.2389 46.8483,-180.0896 51.8817,-189.4125 56.5969,-184.2389"/>
</g>
<!-- 5 -->
<g id="node6" class="node">
<title>5</title>
<path fill="none" stroke="#5682d8" stroke-width="2" stroke-dasharray="5,2" d="M162,-180C162,-180 84,-180 84,-180 78,-180 72,-174 72,-168 72,-168 72,-156 72,-156 72,-150 78,-144 84,-144 84,-144 162,-144 162,-144 168,-144 174,-150 174,-156 174,-156 174,-168 174,-168 174,-174 168,-180 162,-180"/>
<text text-anchor="middle" x="123" y="-159.5" font-family="sans" font-size="10.00" fill="#000000">pre_aln_NanoPlot</text>
</g>
<!-- 2&#45;&gt;5 -->
<g id="edge8" class="edge">
<title>2&#45;&gt;5</title>
<path fill="none" stroke="#c0c0c0" stroke-width="2" d="M177.1477,-287.7623C166.4795,-262.9846 147.3141,-218.4714 134.8807,-189.5939"/>
<polygon fill="#c0c0c0" stroke="#c0c0c0" stroke-width="2" points="137.9579,-187.8903 130.7886,-180.0896 131.5285,-190.6586 137.9579,-187.8903"/>
</g>
<!-- 8 -->
<g id="node9" class="node">
<title>8</title>
<path fill="none" stroke="#56d86b" stroke-width="2" stroke-dasharray="5,2" d="M378,-252C378,-252 348,-252 348,-252 342,-252 336,-246 336,-240 336,-240 336,-228 336,-228 336,-222 342,-216 348,-216 348,-216 378,-216 378,-216 384,-216 390,-222 390,-228 390,-228 390,-240 390,-240 390,-246 384,-252 378,-252"/>
<text text-anchor="middle" x="363" y="-231.5" font-family="sans" font-size="10.00" fill="#000000">vulcan</text>
</g>
<!-- 2&#45;&gt;8 -->
<g id="edge11" class="edge">
<title>2&#45;&gt;8</title>
<path fill="none" stroke="#c0c0c0" stroke-width="2" d="M212.0344,-295.0647C242.4845,-282.7478 292.1465,-262.6599 326.137,-248.9109"/>
<polygon fill="#c0c0c0" stroke="#c0c0c0" stroke-width="2" points="327.7533,-252.0326 335.7112,-245.0382 325.1284,-245.5434 327.7533,-252.0326"/>
</g>
<!-- 2&#45;&gt;9 -->
<g id="edge13" class="edge">
<title>2&#45;&gt;9</title>
<path fill="none" stroke="#c0c0c0" stroke-width="2" d="M188.9264,-287.9555C197.1168,-250.3144 216.0751,-163.1867 225.8803,-118.1246"/>
<polygon fill="#c0c0c0" stroke="#c0c0c0" stroke-width="2" points="229.3455,-118.6606 228.0518,-108.1451 222.5055,-117.1722 229.3455,-118.6606"/>
</g>
<!-- 3 -->
<g id="node4" class="node">
<title>3</title>
<path fill="none" stroke="#d8b456" stroke-width="2" stroke-dasharray="5,2" d="M293.5,-396C293.5,-396 130.5,-396 130.5,-396 124.5,-396 118.5,-390 118.5,-384 118.5,-384 118.5,-372 118.5,-372 118.5,-366 124.5,-360 130.5,-360 130.5,-360 293.5,-360 293.5,-360 299.5,-360 305.5,-366 305.5,-372 305.5,-372 305.5,-384 305.5,-384 305.5,-390 299.5,-396 293.5,-396"/>
<text text-anchor="middle" x="212" y="-381" font-family="sans" font-size="10.00" fill="#000000">porechop</text>
<text text-anchor="middle" x="212" y="-370" font-family="sans" font-size="10.00" fill="#000000">sample: FAR12603_pass_255c3309</text>
</g>
<!-- 3&#45;&gt;2 -->
<g id="edge6" class="edge">
<title>3&#45;&gt;2</title>
<path fill="none" stroke="#c0c0c0" stroke-width="2" d="M205.1868,-359.8314C202.2356,-351.9617 198.7142,-342.5712 195.445,-333.8533"/>
<polygon fill="#c0c0c0" stroke="#c0c0c0" stroke-width="2" points="198.6934,-332.5476 191.905,-324.4133 192.1391,-335.0055 198.6934,-332.5476"/>
</g>
<!-- 3&#45;&gt;9 -->
<g id="edge16" class="edge">
<title>3&#45;&gt;9</title>
<path fill="none" stroke="#c0c0c0" stroke-width="2" d="M215.6247,-359.5796C217.5322,-349.1756 219.7322,-335.9081 221,-324 228.8587,-250.1819 231.103,-162.6677 231.7438,-118.5166"/>
<polygon fill="#c0c0c0" stroke="#c0c0c0" stroke-width="2" points="235.2467,-118.3046 231.8747,-108.2607 228.2473,-118.2152 235.2467,-118.3046"/>
</g>
<!-- 4 -->
<g id="node5" class="node">
<title>4</title>
<path fill="none" stroke="#56d89a" stroke-width="2" stroke-dasharray="5,2" d="M232.5,-468C232.5,-468 191.5,-468 191.5,-468 185.5,-468 179.5,-462 179.5,-456 179.5,-456 179.5,-444 179.5,-444 179.5,-438 185.5,-432 191.5,-432 191.5,-432 232.5,-432 232.5,-432 238.5,-432 244.5,-438 244.5,-444 244.5,-444 244.5,-456 244.5,-456 244.5,-462 238.5,-468 232.5,-468"/>
<text text-anchor="middle" x="212" y="-447.5" font-family="sans" font-size="10.00" fill="#000000">prep_data</text>
</g>
<!-- 4&#45;&gt;3 -->
<g id="edge7" class="edge">
<title>4&#45;&gt;3</title>
<path fill="none" stroke="#c0c0c0" stroke-width="2" d="M212,-431.8314C212,-424.131 212,-414.9743 212,-406.4166"/>
<polygon fill="#c0c0c0" stroke="#c0c0c0" stroke-width="2" points="215.5001,-406.4132 212,-396.4133 208.5001,-406.4133 215.5001,-406.4132"/>
</g>
<!-- 5&#45;&gt;0 -->
<g id="edge2" class="edge">
<title>5&#45;&gt;0</title>
<path fill="none" stroke="#c0c0c0" stroke-width="2" d="M130.3457,-143.7623C140.3256,-118.9846 158.2546,-74.4714 169.8858,-45.5939"/>
<polygon fill="#c0c0c0" stroke="#c0c0c0" stroke-width="2" points="173.2243,-46.6731 173.7139,-36.0896 166.7312,-44.0578 173.2243,-46.6731"/>
</g>
<!-- 5&#45;&gt;9 -->
<g id="edge15" class="edge">
<title>5&#45;&gt;9</title>
<path fill="none" stroke="#c0c0c0" stroke-width="2" d="M150.5053,-143.8314C164.318,-134.7074 181.2256,-123.539 196.0529,-113.7449"/>
<polygon fill="#c0c0c0" stroke="#c0c0c0" stroke-width="2" points="198.0886,-116.5949 204.5035,-108.1628 194.2304,-110.7541 198.0886,-116.5949"/>
</g>
<!-- 6 -->
<g id="node7" class="node">
<title>6</title>
<path fill="none" stroke="#9fd856" stroke-width="2" stroke-dasharray="5,2" d="M465,-108C465,-108 379,-108 379,-108 373,-108 367,-102 367,-96 367,-96 367,-84 367,-84 367,-78 373,-72 379,-72 379,-72 465,-72 465,-72 471,-72 477,-78 477,-84 477,-84 477,-96 477,-96 477,-102 471,-108 465,-108"/>
<text text-anchor="middle" x="422" y="-87.5" font-family="sans" font-size="10.00" fill="#000000">vulcan_final_report</text>
</g>
<!-- 6&#45;&gt;0 -->
<g id="edge3" class="edge">
<title>6&#45;&gt;0</title>
<path fill="none" stroke="#c0c0c0" stroke-width="2" d="M366.7097,-73.4817C321.0711,-59.847 257.5734,-40.8767 217.9046,-29.0254"/>
<polygon fill="#c0c0c0" stroke="#c0c0c0" stroke-width="2" points="218.6979,-25.6096 208.1144,-26.1006 216.694,-32.3167 218.6979,-25.6096"/>
</g>
<!-- 7 -->
<g id="node8" class="node">
<title>7</title>
<path fill="none" stroke="#70d856" stroke-width="2" stroke-dasharray="5,2" d="M518,-180C518,-180 444,-180 444,-180 438,-180 432,-174 432,-168 432,-168 432,-156 432,-156 432,-150 438,-144 444,-144 444,-144 518,-144 518,-144 524,-144 530,-150 530,-156 530,-156 530,-168 530,-168 530,-174 524,-180 518,-180"/>
<text text-anchor="middle" x="481" y="-159.5" font-family="sans" font-size="10.00" fill="#000000">vulcan_NanoPlot</text>
</g>
<!-- 7&#45;&gt;6 -->
<g id="edge9" class="edge">
<title>7&#45;&gt;6</title>
<path fill="none" stroke="#c0c0c0" stroke-width="2" d="M466.1118,-143.8314C459.247,-135.454 450.9699,-125.3531 443.4489,-116.1749"/>
<polygon fill="#c0c0c0" stroke="#c0c0c0" stroke-width="2" points="446.1341,-113.9297 437.0886,-108.4133 440.7197,-118.3665 446.1341,-113.9297"/>
</g>
<!-- 7&#45;&gt;9 -->
<g id="edge14" class="edge">
<title>7&#45;&gt;9</title>
<path fill="none" stroke="#c0c0c0" stroke-width="2" d="M431.8056,-147.7751C394.4102,-136.962 342.4957,-121.9506 300.9571,-109.9394"/>
<polygon fill="#c0c0c0" stroke="#c0c0c0" stroke-width="2" points="301.7584,-106.5278 291.1797,-107.1122 299.8139,-113.2523 301.7584,-106.5278"/>
</g>
<!-- 8&#45;&gt;7 -->
<g id="edge10" class="edge">
<title>8&#45;&gt;7</title>
<path fill="none" stroke="#c0c0c0" stroke-width="2" d="M390.0716,-217.4817C405.6001,-208.0067 425.3513,-195.9552 442.4754,-185.5065"/>
<polygon fill="#c0c0c0" stroke="#c0c0c0" stroke-width="2" points="444.4412,-188.4072 451.1545,-180.2108 440.7951,-182.4317 444.4412,-188.4072"/>
</g>
<!-- 8&#45;&gt;9 -->
<g id="edge18" class="edge">
<title>8&#45;&gt;9</title>
<path fill="none" stroke="#c0c0c0" stroke-width="2" d="M375.385,-215.8274C386.9221,-196.414 400.2361,-165.5346 385,-144 374.6274,-129.3394 336.6291,-115.8862 301.0988,-106.075"/>
<polygon fill="#c0c0c0" stroke="#c0c0c0" stroke-width="2" points="301.7336,-102.6215 291.1679,-103.4063 299.9169,-109.3816 301.7336,-102.6215"/>
</g>
<!-- 10 -->
<g id="node11" class="node">
<title>10</title>
<path fill="none" stroke="#56b1d8" stroke-width="2" stroke-dasharray="5,2" d="M364,-180C364,-180 280,-180 280,-180 274,-180 268,-174 268,-168 268,-168 268,-156 268,-156 268,-150 274,-144 280,-144 280,-144 364,-144 364,-144 370,-144 376,-150 376,-156 376,-156 376,-168 376,-168 376,-174 370,-180 364,-180"/>
<text text-anchor="middle" x="322" y="-159.5" font-family="sans" font-size="10.00" fill="#000000">vulcan_bam_index</text>
</g>
<!-- 8&#45;&gt;10 -->
<g id="edge19" class="edge">
<title>8&#45;&gt;10</title>
<path fill="none" stroke="#c0c0c0" stroke-width="2" d="M352.654,-215.8314C348.0763,-207.7925 342.5948,-198.1666 337.5412,-189.2918"/>
<polygon fill="#c0c0c0" stroke="#c0c0c0" stroke-width="2" points="340.4752,-187.3712 332.4853,-180.4133 334.3923,-190.8351 340.4752,-187.3712"/>
</g>
<!-- 9&#45;&gt;0 -->
<g id="edge4" class="edge">
<title>9&#45;&gt;0</title>
<path fill="none" stroke="#c0c0c0" stroke-width="2" d="M219.1305,-71.8314C213.3165,-63.6232 206.3304,-53.7606 199.9354,-44.7323"/>
<polygon fill="#c0c0c0" stroke="#c0c0c0" stroke-width="2" points="202.679,-42.5505 194.0427,-36.4133 196.9669,-46.5966 202.679,-42.5505"/>
</g>
<!-- 10&#45;&gt;9 -->
<g id="edge17" class="edge">
<title>10&#45;&gt;9</title>
<path fill="none" stroke="#c0c0c0" stroke-width="2" d="M299.2892,-143.8314C288.204,-134.9632 274.7046,-124.1637 262.7148,-114.5718"/>
<polygon fill="#c0c0c0" stroke="#c0c0c0" stroke-width="2" points="264.6987,-111.6768 254.7035,-108.1628 260.3258,-117.1429 264.6987,-111.6768"/>
</g>
</g>
</svg>
