<?xml version="1.0" encoding="UTF-8" standalone="no"?>
<!DOCTYPE svg PUBLIC "-//W3C//DTD SVG 1.1//EN"
 "http://www.w3.org/Graphics/SVG/1.1/DTD/svg11.dtd">
<!-- Generated by graphviz version 2.40.1 (20161225.0304)
 -->
<!-- Title: snakemake_dag Pages: 1 -->
<svg width="594pt" height="548pt"
 viewBox="0.00 0.00 593.50 548.00" xmlns="http://www.w3.org/2000/svg" xmlns:xlink="http://www.w3.org/1999/xlink">
<g id="graph0" class="graph" transform="scale(1 1) rotate(0) translate(4 544)">
<title>snakemake_dag</title>
<polygon fill="#ffffff" stroke="transparent" points="-4,4 -4,-544 589.5,-544 589.5,4 -4,4"/>
<!-- 0 -->
<g id="node1" class="node">
<title>0</title>
<path fill="none" stroke="#56d0d8" stroke-width="2" d="M271.5,-36C271.5,-36 241.5,-36 241.5,-36 235.5,-36 229.5,-30 229.5,-24 229.5,-24 229.5,-12 229.5,-12 229.5,-6 235.5,0 241.5,0 241.5,0 271.5,0 271.5,0 277.5,0 283.5,-6 283.5,-12 283.5,-12 283.5,-24 283.5,-24 283.5,-30 277.5,-36 271.5,-36"/>
<text text-anchor="middle" x="256.5" y="-15.5" font-family="sans" font-size="10.00" fill="#000000">all</text>
</g>
<!-- 1 -->
<g id="node2" class="node">
<title>1</title>
<path fill="none" stroke="#d85656" stroke-width="2" d="M197.5,-180C197.5,-180 167.5,-180 167.5,-180 161.5,-180 155.5,-174 155.5,-168 155.5,-168 155.5,-156 155.5,-156 155.5,-150 161.5,-144 167.5,-144 167.5,-144 197.5,-144 197.5,-144 203.5,-144 209.5,-150 209.5,-156 209.5,-156 209.5,-168 209.5,-168 209.5,-174 203.5,-180 197.5,-180"/>
<text text-anchor="middle" x="182.5" y="-159.5" font-family="sans" font-size="10.00" fill="#000000">FastQC</text>
</g>
<!-- 1&#45;&gt;0 -->
<g id="edge1" class="edge">
<title>1&#45;&gt;0</title>
<path fill="none" stroke="#c0c0c0" stroke-width="2" d="M188.9685,-143.9506C195.865,-125.443 207.5583,-96.0451 220.5,-72 225.4145,-62.8691 231.4481,-53.3244 237.161,-44.8435"/>
<polygon fill="#c0c0c0" stroke="#c0c0c0" stroke-width="2" points="240.15,-46.6739 242.938,-36.4525 234.3844,-42.7044 240.15,-46.6739"/>
</g>
<!-- 11 -->
<g id="node12" class="node">
<title>11</title>
<path fill="none" stroke="#d8d356" stroke-width="2" d="M160.5,-108C160.5,-108 88.5,-108 88.5,-108 82.5,-108 76.5,-102 76.5,-96 76.5,-96 76.5,-84 76.5,-84 76.5,-78 82.5,-72 88.5,-72 88.5,-72 160.5,-72 160.5,-72 166.5,-72 172.5,-78 172.5,-84 172.5,-84 172.5,-96 172.5,-96 172.5,-102 166.5,-108 160.5,-108"/>
<text text-anchor="middle" x="124.5" y="-87.5" font-family="sans" font-size="10.00" fill="#000000">mm2_plot_chart</text>
</g>
<!-- 1&#45;&gt;11 -->
<g id="edge19" class="edge">
<title>1&#45;&gt;11</title>
<path fill="none" stroke="#c0c0c0" stroke-width="2" d="M167.8642,-143.8314C161.1839,-135.5386 153.1432,-125.557 145.8096,-116.4533"/>
<polygon fill="#c0c0c0" stroke="#c0c0c0" stroke-width="2" points="148.3319,-114.0052 139.3329,-108.4133 142.8806,-118.3965 148.3319,-114.0052"/>
</g>
<!-- 15 -->
<g id="node16" class="node">
<title>15</title>
<path fill="none" stroke="#88d856" stroke-width="2" d="M272,-108C272,-108 241,-108 241,-108 235,-108 229,-102 229,-96 229,-96 229,-84 229,-84 229,-78 235,-72 241,-72 241,-72 272,-72 272,-72 278,-72 284,-78 284,-84 284,-84 284,-96 284,-96 284,-102 278,-108 272,-108"/>
<text text-anchor="middle" x="256.5" y="-87.5" font-family="sans" font-size="10.00" fill="#000000">MultiQC</text>
</g>
<!-- 1&#45;&gt;15 -->
<g id="edge23" class="edge">
<title>1&#45;&gt;15</title>
<path fill="none" stroke="#c0c0c0" stroke-width="2" d="M201.1733,-143.8314C210.0249,-135.219 220.7486,-124.7851 230.3895,-115.4048"/>
<polygon fill="#c0c0c0" stroke="#c0c0c0" stroke-width="2" points="233.1061,-117.645 237.8326,-108.1628 228.2246,-112.6279 233.1061,-117.645"/>
</g>
<!-- 2 -->
<g id="node3" class="node">
<title>2</title>
<path fill="none" stroke="#56b1d8" stroke-width="2" d="M197.5,-468C197.5,-468 167.5,-468 167.5,-468 161.5,-468 155.5,-462 155.5,-456 155.5,-456 155.5,-444 155.5,-444 155.5,-438 161.5,-432 167.5,-432 167.5,-432 197.5,-432 197.5,-432 203.5,-432 209.5,-438 209.5,-444 209.5,-444 209.5,-456 209.5,-456 209.5,-462 203.5,-468 197.5,-468"/>
<text text-anchor="middle" x="182.5" y="-447.5" font-family="sans" font-size="10.00" fill="#000000">NanoQ</text>
</g>
<!-- 2&#45;&gt;1 -->
<g id="edge8" class="edge">
<title>2&#45;&gt;1</title>
<path fill="none" stroke="#c0c0c0" stroke-width="2" d="M182.5,-431.9843C182.5,-383.2939 182.5,-248.7961 182.5,-190.0573"/>
<polygon fill="#c0c0c0" stroke="#c0c0c0" stroke-width="2" points="186.0001,-190.0088 182.5,-180.0089 179.0001,-190.0089 186.0001,-190.0088"/>
</g>
<!-- 4 -->
<g id="node5" class="node">
<title>4</title>
<path fill="none" stroke="#68d856" stroke-width="2" d="M125,-180C125,-180 12,-180 12,-180 6,-180 0,-174 0,-168 0,-168 0,-156 0,-156 0,-150 6,-144 12,-144 12,-144 125,-144 125,-144 131,-144 137,-150 137,-156 137,-156 137,-168 137,-168 137,-174 131,-180 125,-180"/>
<text text-anchor="middle" x="68.5" y="-159.5" font-family="sans" font-size="10.00" fill="#000000">Pre_alignment_NanoPlot</text>
</g>
<!-- 2&#45;&gt;4 -->
<g id="edge10" class="edge">
<title>2&#45;&gt;4</title>
<path fill="none" stroke="#c0c0c0" stroke-width="2" d="M175.3688,-431.9843C156.0155,-383.0919 102.4144,-247.6785 79.3181,-189.33"/>
<polygon fill="#c0c0c0" stroke="#c0c0c0" stroke-width="2" points="82.5634,-188.0188 75.6285,-180.0089 76.0547,-190.5951 82.5634,-188.0188"/>
</g>
<!-- 8 -->
<g id="node9" class="node">
<title>8</title>
<path fill="none" stroke="#d87556" stroke-width="2" d="M293.5,-396C293.5,-396 251.5,-396 251.5,-396 245.5,-396 239.5,-390 239.5,-384 239.5,-384 239.5,-372 239.5,-372 239.5,-366 245.5,-360 251.5,-360 251.5,-360 293.5,-360 293.5,-360 299.5,-360 305.5,-366 305.5,-372 305.5,-372 305.5,-384 305.5,-384 305.5,-390 299.5,-396 293.5,-396"/>
<text text-anchor="middle" x="272.5" y="-375.5" font-family="sans" font-size="10.00" fill="#000000">minimap2</text>
</g>
<!-- 2&#45;&gt;8 -->
<g id="edge14" class="edge">
<title>2&#45;&gt;8</title>
<path fill="none" stroke="#c0c0c0" stroke-width="2" d="M205.2108,-431.8314C216.296,-422.9632 229.7954,-412.1637 241.7852,-402.5718"/>
<polygon fill="#c0c0c0" stroke="#c0c0c0" stroke-width="2" points="244.1742,-405.1429 249.7965,-396.1628 239.8013,-399.6768 244.1742,-405.1429"/>
</g>
<!-- 3 -->
<g id="node4" class="node">
<title>3</title>
<path fill="none" stroke="#bed856" stroke-width="2" d="M201.5,-540C201.5,-540 163.5,-540 163.5,-540 157.5,-540 151.5,-534 151.5,-528 151.5,-528 151.5,-516 151.5,-516 151.5,-510 157.5,-504 163.5,-504 163.5,-504 201.5,-504 201.5,-504 207.5,-504 213.5,-510 213.5,-516 213.5,-516 213.5,-528 213.5,-528 213.5,-534 207.5,-540 201.5,-540"/>
<text text-anchor="middle" x="182.5" y="-519.5" font-family="sans" font-size="10.00" fill="#000000">Porechop</text>
</g>
<!-- 3&#45;&gt;2 -->
<g id="edge9" class="edge">
<title>3&#45;&gt;2</title>
<path fill="none" stroke="#c0c0c0" stroke-width="2" d="M182.5,-503.8314C182.5,-496.131 182.5,-486.9743 182.5,-478.4166"/>
<polygon fill="#c0c0c0" stroke="#c0c0c0" stroke-width="2" points="186.0001,-478.4132 182.5,-468.4133 179.0001,-478.4133 186.0001,-478.4132"/>
</g>
<!-- 4&#45;&gt;0 -->
<g id="edge2" class="edge">
<title>4&#45;&gt;0</title>
<path fill="none" stroke="#c0c0c0" stroke-width="2" d="M62.3251,-143.771C56.8772,-124.0216 51.9737,-92.5837 67.5,-72 85.7263,-47.8369 169.4358,-31.233 219.131,-23.3138"/>
<polygon fill="#c0c0c0" stroke="#c0c0c0" stroke-width="2" points="219.8373,-26.7462 229.1834,-21.7561 218.7653,-19.8287 219.8373,-26.7462"/>
</g>
<!-- 4&#45;&gt;11 -->
<g id="edge17" class="edge">
<title>4&#45;&gt;11</title>
<path fill="none" stroke="#c0c0c0" stroke-width="2" d="M82.6312,-143.8314C89.0811,-135.5386 96.8445,-125.557 103.9252,-116.4533"/>
<polygon fill="#c0c0c0" stroke="#c0c0c0" stroke-width="2" points="106.8019,-118.4556 110.1786,-108.4133 101.2764,-114.158 106.8019,-118.4556"/>
</g>
<!-- 4&#45;&gt;15 -->
<g id="edge26" class="edge">
<title>4&#45;&gt;15</title>
<path fill="none" stroke="#c0c0c0" stroke-width="2" d="M115.9403,-143.8314C147.9953,-131.555 189.7144,-115.5774 219.3542,-104.2261"/>
<polygon fill="#c0c0c0" stroke="#c0c0c0" stroke-width="2" points="220.8246,-107.4109 228.9114,-100.5658 218.3211,-100.8739 220.8246,-107.4109"/>
</g>
<!-- 5 -->
<g id="node6" class="node">
<title>5</title>
<path fill="none" stroke="#56d863" stroke-width="2" d="M377,-108C377,-108 314,-108 314,-108 308,-108 302,-102 302,-96 302,-96 302,-84 302,-84 302,-78 308,-72 314,-72 314,-72 377,-72 377,-72 383,-72 389,-78 389,-84 389,-84 389,-96 389,-96 389,-102 383,-108 377,-108"/>
<text text-anchor="middle" x="345.5" y="-87.5" font-family="sans" font-size="10.00" fill="#000000">NanoPlot_final</text>
</g>
<!-- 5&#45;&gt;0 -->
<g id="edge3" class="edge">
<title>5&#45;&gt;0</title>
<path fill="none" stroke="#c0c0c0" stroke-width="2" d="M323.0415,-71.8314C312.0795,-62.9632 298.7301,-52.1637 286.8735,-42.5718"/>
<polygon fill="#c0c0c0" stroke="#c0c0c0" stroke-width="2" points="288.9271,-39.7313 278.9513,-36.1628 284.5245,-45.1734 288.9271,-39.7313"/>
</g>
<!-- 6 -->
<g id="node7" class="node">
<title>6</title>
<path fill="none" stroke="#d89556" stroke-width="2" d="M307.5,-180C307.5,-180 239.5,-180 239.5,-180 233.5,-180 227.5,-174 227.5,-168 227.5,-168 227.5,-156 227.5,-156 227.5,-150 233.5,-144 239.5,-144 239.5,-144 307.5,-144 307.5,-144 313.5,-144 319.5,-150 319.5,-156 319.5,-156 319.5,-168 319.5,-168 319.5,-174 313.5,-180 307.5,-180"/>
<text text-anchor="middle" x="273.5" y="-159.5" font-family="sans" font-size="10.00" fill="#000000">mm2_NanoPlot</text>
</g>
<!-- 6&#45;&gt;5 -->
<g id="edge11" class="edge">
<title>6&#45;&gt;5</title>
<path fill="none" stroke="#c0c0c0" stroke-width="2" d="M291.6686,-143.8314C300.2152,-135.2848 310.5557,-124.9443 319.8802,-115.6198"/>
<polygon fill="#c0c0c0" stroke="#c0c0c0" stroke-width="2" points="322.4905,-117.9592 327.0867,-108.4133 317.5408,-113.0095 322.4905,-117.9592"/>
</g>
<!-- 6&#45;&gt;11 -->
<g id="edge18" class="edge">
<title>6&#45;&gt;11</title>
<path fill="none" stroke="#c0c0c0" stroke-width="2" d="M235.901,-143.8314C216.1503,-134.2874 191.7703,-122.5065 170.8583,-112.4013"/>
<polygon fill="#c0c0c0" stroke="#c0c0c0" stroke-width="2" points="172.3553,-109.2376 161.8286,-108.038 169.3097,-115.5403 172.3553,-109.2376"/>
</g>
<!-- 6&#45;&gt;15 -->
<g id="edge25" class="edge">
<title>6&#45;&gt;15</title>
<path fill="none" stroke="#c0c0c0" stroke-width="2" d="M269.2102,-143.8314C267.392,-136.131 265.2301,-126.9743 263.2095,-118.4166"/>
<polygon fill="#c0c0c0" stroke="#c0c0c0" stroke-width="2" points="266.5519,-117.3414 260.8476,-108.4133 259.7392,-118.95 266.5519,-117.3414"/>
</g>
<!-- 7 -->
<g id="node8" class="node">
<title>7</title>
<path fill="none" stroke="#56d8c1" stroke-width="2" d="M330.5,-324C330.5,-324 274.5,-324 274.5,-324 268.5,-324 262.5,-318 262.5,-312 262.5,-312 262.5,-300 262.5,-300 262.5,-294 268.5,-288 274.5,-288 274.5,-288 330.5,-288 330.5,-288 336.5,-288 342.5,-294 342.5,-300 342.5,-300 342.5,-312 342.5,-312 342.5,-318 336.5,-324 330.5,-324"/>
<text text-anchor="middle" x="302.5" y="-303.5" font-family="sans" font-size="10.00" fill="#000000">sam_to_bam</text>
</g>
<!-- 7&#45;&gt;6 -->
<g id="edge12" class="edge">
<title>7&#45;&gt;6</title>
<path fill="none" stroke="#c0c0c0" stroke-width="2" d="M298.8271,-287.7623C293.859,-263.0928 284.9509,-218.8598 279.1335,-189.9731"/>
<polygon fill="#c0c0c0" stroke="#c0c0c0" stroke-width="2" points="282.5485,-189.2018 277.143,-180.0896 275.6863,-190.5838 282.5485,-189.2018"/>
</g>
<!-- 10 -->
<g id="node11" class="node">
<title>10</title>
<path fill="none" stroke="#5692d8" stroke-width="2" d="M351.5,-252C351.5,-252 313.5,-252 313.5,-252 307.5,-252 301.5,-246 301.5,-240 301.5,-240 301.5,-228 301.5,-228 301.5,-222 307.5,-216 313.5,-216 313.5,-216 351.5,-216 351.5,-216 357.5,-216 363.5,-222 363.5,-228 363.5,-228 363.5,-240 363.5,-240 363.5,-246 357.5,-252 351.5,-252"/>
<text text-anchor="middle" x="332.5" y="-231.5" font-family="sans" font-size="10.00" fill="#000000">Samstats</text>
</g>
<!-- 7&#45;&gt;10 -->
<g id="edge16" class="edge">
<title>7&#45;&gt;10</title>
<path fill="none" stroke="#c0c0c0" stroke-width="2" d="M310.0703,-287.8314C313.3493,-279.9617 317.262,-270.5712 320.8945,-261.8533"/>
<polygon fill="#c0c0c0" stroke="#c0c0c0" stroke-width="2" points="324.2124,-262.9902 324.8278,-252.4133 317.7508,-260.2979 324.2124,-262.9902"/>
</g>
<!-- 14 -->
<g id="node15" class="node">
<title>14</title>
<path fill="none" stroke="#56d8a2" stroke-width="2" d="M573.5,-252C573.5,-252 493.5,-252 493.5,-252 487.5,-252 481.5,-246 481.5,-240 481.5,-240 481.5,-228 481.5,-228 481.5,-222 487.5,-216 493.5,-216 493.5,-216 573.5,-216 573.5,-216 579.5,-216 585.5,-222 585.5,-228 585.5,-228 585.5,-240 585.5,-240 585.5,-246 579.5,-252 573.5,-252"/>
<text text-anchor="middle" x="533.5" y="-231.5" font-family="sans" font-size="10.00" fill="#000000">mm2_genomecov</text>
</g>
<!-- 7&#45;&gt;14 -->
<g id="edge22" class="edge">
<title>7&#45;&gt;14</title>
<path fill="none" stroke="#c0c0c0" stroke-width="2" d="M342.7371,-293.4586C378.2791,-282.3805 430.6625,-266.0532 471.5486,-253.3095"/>
<polygon fill="#c0c0c0" stroke="#c0c0c0" stroke-width="2" points="472.6402,-256.6354 481.1457,-250.3182 470.5572,-249.9525 472.6402,-256.6354"/>
</g>
<!-- 8&#45;&gt;7 -->
<g id="edge13" class="edge">
<title>8&#45;&gt;7</title>
<path fill="none" stroke="#c0c0c0" stroke-width="2" d="M280.0703,-359.8314C283.3493,-351.9617 287.262,-342.5712 290.8945,-333.8533"/>
<polygon fill="#c0c0c0" stroke="#c0c0c0" stroke-width="2" points="294.2124,-334.9902 294.8278,-324.4133 287.7508,-332.2979 294.2124,-334.9902"/>
</g>
<!-- 9 -->
<g id="node10" class="node">
<title>9</title>
<path fill="none" stroke="#56d882" stroke-width="2" d="M415,-180C415,-180 350,-180 350,-180 344,-180 338,-174 338,-168 338,-168 338,-156 338,-156 338,-150 344,-144 350,-144 350,-144 415,-144 415,-144 421,-144 427,-150 427,-156 427,-156 427,-168 427,-168 427,-174 421,-180 415,-180"/>
<text text-anchor="middle" x="382.5" y="-159.5" font-family="sans" font-size="10.00" fill="#000000">Samstats_final</text>
</g>
<!-- 9&#45;&gt;0 -->
<g id="edge4" class="edge">
<title>9&#45;&gt;0</title>
<path fill="none" stroke="#c0c0c0" stroke-width="2" d="M392.9387,-143.7855C402.5533,-124.3362 413.2752,-93.4263 398.5,-72 386.1984,-54.1609 331.1867,-36.975 293.3609,-26.9533"/>
<polygon fill="#c0c0c0" stroke="#c0c0c0" stroke-width="2" points="294.2331,-23.5638 283.6748,-24.4429 292.4768,-30.3399 294.2331,-23.5638"/>
</g>
<!-- 9&#45;&gt;15 -->
<g id="edge24" class="edge">
<title>9&#45;&gt;15</title>
<path fill="none" stroke="#c0c0c0" stroke-width="2" d="M350.7049,-143.8314C333.1175,-133.7815 311.1895,-121.2512 292.9158,-110.809"/>
<polygon fill="#c0c0c0" stroke="#c0c0c0" stroke-width="2" points="294.4242,-107.6399 284.0053,-105.7173 290.9512,-113.7176 294.4242,-107.6399"/>
</g>
<!-- 10&#45;&gt;9 -->
<g id="edge15" class="edge">
<title>10&#45;&gt;9</title>
<path fill="none" stroke="#c0c0c0" stroke-width="2" d="M345.1171,-215.8314C350.8172,-207.6232 357.6663,-197.7606 363.9359,-188.7323"/>
<polygon fill="#c0c0c0" stroke="#c0c0c0" stroke-width="2" points="366.8838,-190.6234 369.713,-180.4133 361.1342,-186.6306 366.8838,-190.6234"/>
</g>
<!-- 11&#45;&gt;0 -->
<g id="edge5" class="edge">
<title>11&#45;&gt;0</title>
<path fill="none" stroke="#c0c0c0" stroke-width="2" d="M157.8092,-71.8314C176.9297,-61.402 200.9476,-48.3013 220.5019,-37.6353"/>
<polygon fill="#c0c0c0" stroke="#c0c0c0" stroke-width="2" points="222.3165,-40.6324 229.4194,-32.7712 218.9645,-34.4872 222.3165,-40.6324"/>
</g>
<!-- 12 -->
<g id="node13" class="node">
<title>12</title>
<path fill="none" stroke="#5673d8" stroke-width="2" d="M571.5,-180C571.5,-180 457.5,-180 457.5,-180 451.5,-180 445.5,-174 445.5,-168 445.5,-168 445.5,-156 445.5,-156 445.5,-150 451.5,-144 457.5,-144 457.5,-144 571.5,-144 571.5,-144 577.5,-144 583.5,-150 583.5,-156 583.5,-156 583.5,-168 583.5,-168 583.5,-174 577.5,-180 571.5,-180"/>
<text text-anchor="middle" x="514.5" y="-159.5" font-family="sans" font-size="10.00" fill="#000000">mm2_bedGraphtobigWig</text>
</g>
<!-- 12&#45;&gt;0 -->
<g id="edge6" class="edge">
<title>12&#45;&gt;0</title>
<path fill="none" stroke="#c0c0c0" stroke-width="2" d="M498.7122,-143.7102C480.483,-123.6092 448.7179,-91.5795 415.5,-72 376.6939,-49.1267 326.8083,-34.1925 293.355,-25.9466"/>
<polygon fill="#c0c0c0" stroke="#c0c0c0" stroke-width="2" points="294.0705,-22.5191 283.531,-23.6008 292.4447,-29.3277 294.0705,-22.5191"/>
</g>
<!-- 13 -->
<g id="node14" class="node">
<title>13</title>
<path fill="none" stroke="#d8b456" stroke-width="2" d="M451.5,-252C451.5,-252 393.5,-252 393.5,-252 387.5,-252 381.5,-246 381.5,-240 381.5,-240 381.5,-228 381.5,-228 381.5,-222 387.5,-216 393.5,-216 393.5,-216 451.5,-216 451.5,-216 457.5,-216 463.5,-222 463.5,-228 463.5,-228 463.5,-240 463.5,-240 463.5,-246 457.5,-252 451.5,-252"/>
<text text-anchor="middle" x="422.5" y="-231.5" font-family="sans" font-size="10.00" fill="#000000">mm2_chrsize</text>
</g>
<!-- 13&#45;&gt;12 -->
<g id="edge20" class="edge">
<title>13&#45;&gt;12</title>
<path fill="none" stroke="#c0c0c0" stroke-width="2" d="M445.7155,-215.8314C457.047,-206.9632 470.8464,-196.1637 483.1027,-186.5718"/>
<polygon fill="#c0c0c0" stroke="#c0c0c0" stroke-width="2" points="485.574,-189.0822 491.2919,-180.1628 481.2598,-183.5697 485.574,-189.0822"/>
</g>
<!-- 14&#45;&gt;12 -->
<g id="edge21" class="edge">
<title>14&#45;&gt;12</title>
<path fill="none" stroke="#c0c0c0" stroke-width="2" d="M528.7055,-215.8314C526.6511,-208.0463 524.204,-198.7729 521.9244,-190.1347"/>
<polygon fill="#c0c0c0" stroke="#c0c0c0" stroke-width="2" points="525.2948,-189.1892 519.3591,-180.4133 518.5265,-190.9753 525.2948,-189.1892"/>
</g>
<!-- 15&#45;&gt;0 -->
<g id="edge7" class="edge">
<title>15&#45;&gt;0</title>
<path fill="none" stroke="#c0c0c0" stroke-width="2" d="M256.5,-71.8314C256.5,-64.131 256.5,-54.9743 256.5,-46.4166"/>
<polygon fill="#c0c0c0" stroke="#c0c0c0" stroke-width="2" points="260.0001,-46.4132 256.5,-36.4133 253.0001,-46.4133 260.0001,-46.4132"/>
</g>
</g>
</svg>
