<?xml version="1.0" encoding="UTF-8" standalone="no"?>
<!DOCTYPE svg PUBLIC "-//W3C//DTD SVG 1.1//EN"
 "http://www.w3.org/Graphics/SVG/1.1/DTD/svg11.dtd">
<!-- Generated by graphviz version 2.40.1 (20161225.0304)
 -->
<!-- Title: snakemake_dag Pages: 1 -->
<svg width="566pt" height="476pt"
 viewBox="0.00 0.00 566.00 476.00" xmlns="http://www.w3.org/2000/svg" xmlns:xlink="http://www.w3.org/1999/xlink">
<g id="graph0" class="graph" transform="scale(1 1) rotate(0) translate(4 472)">
<title>snakemake_dag</title>
<polygon fill="#ffffff" stroke="transparent" points="-4,4 -4,-472 562,-472 562,4 -4,4"/>
<!-- 0 -->
<g id="node1" class="node">
<title>0</title>
<path fill="none" stroke="#59d856" stroke-width="2" d="M272.5,-36C272.5,-36 242.5,-36 242.5,-36 236.5,-36 230.5,-30 230.5,-24 230.5,-24 230.5,-12 230.5,-12 230.5,-6 236.5,0 242.5,0 242.5,0 272.5,0 272.5,0 278.5,0 284.5,-6 284.5,-12 284.5,-12 284.5,-24 284.5,-24 284.5,-30 278.5,-36 272.5,-36"/>
<text text-anchor="middle" x="257.5" y="-15.5" font-family="sans" font-size="10.00" fill="#000000">all</text>
</g>
<!-- 1 -->
<g id="node2" class="node">
<title>1</title>
<path fill="none" stroke="#d6d856" stroke-width="2" d="M197.5,-180C197.5,-180 167.5,-180 167.5,-180 161.5,-180 155.5,-174 155.5,-168 155.5,-168 155.5,-156 155.5,-156 155.5,-150 161.5,-144 167.5,-144 167.5,-144 197.5,-144 197.5,-144 203.5,-144 209.5,-150 209.5,-156 209.5,-156 209.5,-168 209.5,-168 209.5,-174 203.5,-180 197.5,-180"/>
<text text-anchor="middle" x="182.5" y="-159.5" font-family="sans" font-size="10.00" fill="#000000">FastQC</text>
</g>
<!-- 1&#45;&gt;0 -->
<g id="edge1" class="edge">
<title>1&#45;&gt;0</title>
<path fill="none" stroke="#c0c0c0" stroke-width="2" d="M189.2111,-143.9652C196.3467,-125.4694 208.393,-96.0806 221.5,-72 226.4573,-62.8923 232.5029,-53.3541 238.2137,-44.872"/>
<polygon fill="#c0c0c0" stroke="#c0c0c0" stroke-width="2" points="241.2036,-46.7009 243.984,-36.4774 235.435,-42.7356 241.2036,-46.7009"/>
</g>
<!-- 10 -->
<g id="node11" class="node">
<title>10</title>
<path fill="none" stroke="#56d89a" stroke-width="2" d="M161,-108C161,-108 82,-108 82,-108 76,-108 70,-102 70,-96 70,-96 70,-84 70,-84 70,-78 76,-72 82,-72 82,-72 161,-72 161,-72 167,-72 173,-78 173,-84 173,-84 173,-96 173,-96 173,-102 167,-108 161,-108"/>
<text text-anchor="middle" x="121.5" y="-87.5" font-family="sans" font-size="10.00" fill="#000000">vulcan_plot_chart</text>
</g>
<!-- 1&#45;&gt;10 -->
<g id="edge18" class="edge">
<title>1&#45;&gt;10</title>
<path fill="none" stroke="#c0c0c0" stroke-width="2" d="M167.1071,-143.8314C160.0096,-135.454 151.452,-125.3531 143.676,-116.1749"/>
<polygon fill="#c0c0c0" stroke="#c0c0c0" stroke-width="2" points="146.2348,-113.7807 137.1001,-108.4133 140.8939,-118.3056 146.2348,-113.7807"/>
</g>
<!-- 14 -->
<g id="node15" class="node">
<title>14</title>
<path fill="none" stroke="#56d8b9" stroke-width="2" d="M273,-108C273,-108 242,-108 242,-108 236,-108 230,-102 230,-96 230,-96 230,-84 230,-84 230,-78 236,-72 242,-72 242,-72 273,-72 273,-72 279,-72 285,-78 285,-84 285,-84 285,-96 285,-96 285,-102 279,-108 273,-108"/>
<text text-anchor="middle" x="257.5" y="-87.5" font-family="sans" font-size="10.00" fill="#000000">MultiQC</text>
</g>
<!-- 1&#45;&gt;14 -->
<g id="edge22" class="edge">
<title>1&#45;&gt;14</title>
<path fill="none" stroke="#c0c0c0" stroke-width="2" d="M201.4257,-143.8314C210.4857,-135.1337 221.4809,-124.5783 231.3265,-115.1265"/>
<polygon fill="#c0c0c0" stroke="#c0c0c0" stroke-width="2" points="233.7904,-117.613 238.5804,-108.1628 228.9426,-112.5633 233.7904,-117.613"/>
</g>
<!-- 2 -->
<g id="node3" class="node">
<title>2</title>
<path fill="none" stroke="#d89556" stroke-width="2" d="M197.5,-396C197.5,-396 167.5,-396 167.5,-396 161.5,-396 155.5,-390 155.5,-384 155.5,-384 155.5,-372 155.5,-372 155.5,-366 161.5,-360 167.5,-360 167.5,-360 197.5,-360 197.5,-360 203.5,-360 209.5,-366 209.5,-372 209.5,-372 209.5,-384 209.5,-384 209.5,-390 203.5,-396 197.5,-396"/>
<text text-anchor="middle" x="182.5" y="-375.5" font-family="sans" font-size="10.00" fill="#000000">NanoQ</text>
</g>
<!-- 2&#45;&gt;1 -->
<g id="edge8" class="edge">
<title>2&#45;&gt;1</title>
<path fill="none" stroke="#c0c0c0" stroke-width="2" d="M182.5,-359.9555C182.5,-322.3938 182.5,-235.5541 182.5,-190.4103"/>
<polygon fill="#c0c0c0" stroke="#c0c0c0" stroke-width="2" points="186.0001,-190.145 182.5,-180.1451 179.0001,-190.1451 186.0001,-190.145"/>
</g>
<!-- 4 -->
<g id="node5" class="node">
<title>4</title>
<path fill="none" stroke="#569ad8" stroke-width="2" d="M125,-180C125,-180 12,-180 12,-180 6,-180 0,-174 0,-168 0,-168 0,-156 0,-156 0,-150 6,-144 12,-144 12,-144 125,-144 125,-144 131,-144 137,-150 137,-156 137,-156 137,-168 137,-168 137,-174 131,-180 125,-180"/>
<text text-anchor="middle" x="68.5" y="-159.5" font-family="sans" font-size="10.00" fill="#000000">Pre_alignment_NanoPlot</text>
</g>
<!-- 2&#45;&gt;4 -->
<g id="edge10" class="edge">
<title>2&#45;&gt;4</title>
<path fill="none" stroke="#c0c0c0" stroke-width="2" d="M172.9765,-359.9555C152.9427,-321.9967 106.3483,-233.7127 82.7462,-188.9928"/>
<polygon fill="#c0c0c0" stroke="#c0c0c0" stroke-width="2" points="85.8396,-187.3553 78.0766,-180.1451 79.6489,-190.6226 85.8396,-187.3553"/>
</g>
<!-- 7 -->
<g id="node8" class="node">
<title>7</title>
<path fill="none" stroke="#d87556" stroke-width="2" d="M329.5,-324C329.5,-324 299.5,-324 299.5,-324 293.5,-324 287.5,-318 287.5,-312 287.5,-312 287.5,-300 287.5,-300 287.5,-294 293.5,-288 299.5,-288 299.5,-288 329.5,-288 329.5,-288 335.5,-288 341.5,-294 341.5,-300 341.5,-300 341.5,-312 341.5,-312 341.5,-318 335.5,-324 329.5,-324"/>
<text text-anchor="middle" x="314.5" y="-303.5" font-family="sans" font-size="10.00" fill="#000000">Vulcan</text>
</g>
<!-- 2&#45;&gt;7 -->
<g id="edge13" class="edge">
<title>2&#45;&gt;7</title>
<path fill="none" stroke="#c0c0c0" stroke-width="2" d="M209.5307,-363.256C229.3301,-352.4563 256.4193,-337.6804 278.1189,-325.8442"/>
<polygon fill="#c0c0c0" stroke="#c0c0c0" stroke-width="2" points="279.9489,-328.8329 287.0518,-320.9717 276.5969,-322.6877 279.9489,-328.8329"/>
</g>
<!-- 3 -->
<g id="node4" class="node">
<title>3</title>
<path fill="none" stroke="#97d856" stroke-width="2" d="M201.5,-468C201.5,-468 163.5,-468 163.5,-468 157.5,-468 151.5,-462 151.5,-456 151.5,-456 151.5,-444 151.5,-444 151.5,-438 157.5,-432 163.5,-432 163.5,-432 201.5,-432 201.5,-432 207.5,-432 213.5,-438 213.5,-444 213.5,-444 213.5,-456 213.5,-456 213.5,-462 207.5,-468 201.5,-468"/>
<text text-anchor="middle" x="182.5" y="-447.5" font-family="sans" font-size="10.00" fill="#000000">Porechop</text>
</g>
<!-- 3&#45;&gt;2 -->
<g id="edge9" class="edge">
<title>3&#45;&gt;2</title>
<path fill="none" stroke="#c0c0c0" stroke-width="2" d="M182.5,-431.8314C182.5,-424.131 182.5,-414.9743 182.5,-406.4166"/>
<polygon fill="#c0c0c0" stroke="#c0c0c0" stroke-width="2" points="186.0001,-406.4132 182.5,-396.4133 179.0001,-406.4133 186.0001,-406.4132"/>
</g>
<!-- 4&#45;&gt;0 -->
<g id="edge2" class="edge">
<title>4&#45;&gt;0</title>
<path fill="none" stroke="#c0c0c0" stroke-width="2" d="M60.2356,-143.7694C52.6634,-124.0185 44.8025,-92.5794 60.5,-72 79.7663,-46.7419 168.5501,-30.3893 220.1142,-22.8481"/>
<polygon fill="#c0c0c0" stroke="#c0c0c0" stroke-width="2" points="220.7981,-26.2862 230.2066,-21.4149 219.8138,-19.3557 220.7981,-26.2862"/>
</g>
<!-- 4&#45;&gt;10 -->
<g id="edge16" class="edge">
<title>4&#45;&gt;10</title>
<path fill="none" stroke="#c0c0c0" stroke-width="2" d="M81.8741,-143.8314C87.9162,-135.6232 95.1763,-125.7606 101.8221,-116.7323"/>
<polygon fill="#c0c0c0" stroke="#c0c0c0" stroke-width="2" points="104.8363,-118.5415 107.9458,-108.4133 99.1989,-114.3918 104.8363,-118.5415"/>
</g>
<!-- 4&#45;&gt;14 -->
<g id="edge25" class="edge">
<title>4&#45;&gt;14</title>
<path fill="none" stroke="#c0c0c0" stroke-width="2" d="M116.1927,-143.8314C148.4182,-131.555 190.3592,-115.5774 220.1566,-104.2261"/>
<polygon fill="#c0c0c0" stroke="#c0c0c0" stroke-width="2" points="221.6658,-107.3966 229.7647,-100.5658 219.1738,-100.8551 221.6658,-107.3966"/>
</g>
<!-- 5 -->
<g id="node6" class="node">
<title>5</title>
<path fill="none" stroke="#56d87b" stroke-width="2" d="M378,-108C378,-108 315,-108 315,-108 309,-108 303,-102 303,-96 303,-96 303,-84 303,-84 303,-78 309,-72 315,-72 315,-72 378,-72 378,-72 384,-72 390,-78 390,-84 390,-84 390,-96 390,-96 390,-102 384,-108 378,-108"/>
<text text-anchor="middle" x="346.5" y="-87.5" font-family="sans" font-size="10.00" fill="#000000">NanoPlot_final</text>
</g>
<!-- 5&#45;&gt;0 -->
<g id="edge3" class="edge">
<title>5&#45;&gt;0</title>
<path fill="none" stroke="#c0c0c0" stroke-width="2" d="M324.0415,-71.8314C313.0795,-62.9632 299.7301,-52.1637 287.8735,-42.5718"/>
<polygon fill="#c0c0c0" stroke="#c0c0c0" stroke-width="2" points="289.9271,-39.7313 279.9513,-36.1628 285.5245,-45.1734 289.9271,-39.7313"/>
</g>
<!-- 6 -->
<g id="node7" class="node">
<title>6</title>
<path fill="none" stroke="#78d856" stroke-width="2" d="M313.5,-180C313.5,-180 239.5,-180 239.5,-180 233.5,-180 227.5,-174 227.5,-168 227.5,-168 227.5,-156 227.5,-156 227.5,-150 233.5,-144 239.5,-144 239.5,-144 313.5,-144 313.5,-144 319.5,-144 325.5,-150 325.5,-156 325.5,-156 325.5,-168 325.5,-168 325.5,-174 319.5,-180 313.5,-180"/>
<text text-anchor="middle" x="276.5" y="-159.5" font-family="sans" font-size="10.00" fill="#000000">Vulcan_NanoPlot</text>
</g>
<!-- 6&#45;&gt;5 -->
<g id="edge11" class="edge">
<title>6&#45;&gt;5</title>
<path fill="none" stroke="#c0c0c0" stroke-width="2" d="M294.164,-143.8314C302.4732,-135.2848 312.5264,-124.9443 321.5918,-115.6198"/>
<polygon fill="#c0c0c0" stroke="#c0c0c0" stroke-width="2" points="324.1369,-118.023 328.5982,-108.4133 319.1179,-113.1435 324.1369,-118.023"/>
</g>
<!-- 6&#45;&gt;10 -->
<g id="edge17" class="edge">
<title>6&#45;&gt;10</title>
<path fill="none" stroke="#c0c0c0" stroke-width="2" d="M237.387,-143.8314C216.7488,-134.2446 191.2516,-122.4008 169.4327,-112.2655"/>
<polygon fill="#c0c0c0" stroke="#c0c0c0" stroke-width="2" points="170.8756,-109.0766 160.3318,-108.038 167.9266,-115.4251 170.8756,-109.0766"/>
</g>
<!-- 6&#45;&gt;14 -->
<g id="edge24" class="edge">
<title>6&#45;&gt;14</title>
<path fill="none" stroke="#c0c0c0" stroke-width="2" d="M271.7055,-143.8314C269.6511,-136.0463 267.204,-126.7729 264.9244,-118.1347"/>
<polygon fill="#c0c0c0" stroke="#c0c0c0" stroke-width="2" points="268.2948,-117.1892 262.3591,-108.4133 261.5265,-118.9753 268.2948,-117.1892"/>
</g>
<!-- 7&#45;&gt;6 -->
<g id="edge12" class="edge">
<title>7&#45;&gt;6</title>
<path fill="none" stroke="#c0c0c0" stroke-width="2" d="M309.6873,-287.7623C303.1773,-263.0928 291.5047,-218.8598 283.8818,-189.9731"/>
<polygon fill="#c0c0c0" stroke="#c0c0c0" stroke-width="2" points="287.2094,-188.8656 281.2736,-180.0896 280.4411,-190.6517 287.2094,-188.8656"/>
</g>
<!-- 9 -->
<g id="node10" class="node">
<title>9</title>
<path fill="none" stroke="#56d8d8" stroke-width="2" d="M360.5,-252C360.5,-252 322.5,-252 322.5,-252 316.5,-252 310.5,-246 310.5,-240 310.5,-240 310.5,-228 310.5,-228 310.5,-222 316.5,-216 322.5,-216 322.5,-216 360.5,-216 360.5,-216 366.5,-216 372.5,-222 372.5,-228 372.5,-228 372.5,-240 372.5,-240 372.5,-246 366.5,-252 360.5,-252"/>
<text text-anchor="middle" x="341.5" y="-231.5" font-family="sans" font-size="10.00" fill="#000000">Samstats</text>
</g>
<!-- 7&#45;&gt;9 -->
<g id="edge15" class="edge">
<title>7&#45;&gt;9</title>
<path fill="none" stroke="#c0c0c0" stroke-width="2" d="M321.3132,-287.8314C324.2644,-279.9617 327.7858,-270.5712 331.055,-261.8533"/>
<polygon fill="#c0c0c0" stroke="#c0c0c0" stroke-width="2" points="334.3609,-263.0055 334.595,-252.4133 327.8066,-260.5476 334.3609,-263.0055"/>
</g>
<!-- 13 -->
<g id="node14" class="node">
<title>13</title>
<path fill="none" stroke="#d8b456" stroke-width="2" d="M529.5,-252C529.5,-252 479.5,-252 479.5,-252 473.5,-252 467.5,-246 467.5,-240 467.5,-240 467.5,-228 467.5,-228 467.5,-222 473.5,-216 479.5,-216 479.5,-216 529.5,-216 529.5,-216 535.5,-216 541.5,-222 541.5,-228 541.5,-228 541.5,-240 541.5,-240 541.5,-246 535.5,-252 529.5,-252"/>
<text text-anchor="middle" x="504.5" y="-231.5" font-family="sans" font-size="10.00" fill="#000000">genomecov</text>
</g>
<!-- 7&#45;&gt;13 -->
<g id="edge21" class="edge">
<title>7&#45;&gt;13</title>
<path fill="none" stroke="#c0c0c0" stroke-width="2" d="M341.6144,-295.9629C368.7253,-285.8985 411.8427,-269.8152 457.8212,-252.2378"/>
<polygon fill="#c0c0c0" stroke="#c0c0c0" stroke-width="2" points="459.2733,-255.4296 467.3605,-248.5851 456.7701,-248.8925 459.2733,-255.4296"/>
</g>
<!-- 8 -->
<g id="node9" class="node">
<title>8</title>
<path fill="none" stroke="#56b9d8" stroke-width="2" d="M421,-180C421,-180 356,-180 356,-180 350,-180 344,-174 344,-168 344,-168 344,-156 344,-156 344,-150 350,-144 356,-144 356,-144 421,-144 421,-144 427,-144 433,-150 433,-156 433,-156 433,-168 433,-168 433,-174 427,-180 421,-180"/>
<text text-anchor="middle" x="388.5" y="-159.5" font-family="sans" font-size="10.00" fill="#000000">Samstats_final</text>
</g>
<!-- 8&#45;&gt;0 -->
<g id="edge4" class="edge">
<title>8&#45;&gt;0</title>
<path fill="none" stroke="#c0c0c0" stroke-width="2" d="M397.4191,-143.7181C405.5192,-124.2113 414.1554,-93.2525 399.5,-72 387.1984,-54.1609 332.1867,-36.975 294.3609,-26.9533"/>
<polygon fill="#c0c0c0" stroke="#c0c0c0" stroke-width="2" points="295.2331,-23.5638 284.6748,-24.4429 293.4768,-30.3399 295.2331,-23.5638"/>
</g>
<!-- 8&#45;&gt;14 -->
<g id="edge23" class="edge">
<title>8&#45;&gt;14</title>
<path fill="none" stroke="#c0c0c0" stroke-width="2" d="M355.4432,-143.8314C336.7292,-133.5458 313.2882,-120.6622 294.0309,-110.078"/>
<polygon fill="#c0c0c0" stroke="#c0c0c0" stroke-width="2" points="295.6811,-106.9913 285.2317,-105.2418 292.3094,-113.1258 295.6811,-106.9913"/>
</g>
<!-- 9&#45;&gt;8 -->
<g id="edge14" class="edge">
<title>9&#45;&gt;8</title>
<path fill="none" stroke="#c0c0c0" stroke-width="2" d="M353.3601,-215.8314C358.6629,-207.7079 365.0237,-197.9637 370.8673,-189.0118"/>
<polygon fill="#c0c0c0" stroke="#c0c0c0" stroke-width="2" points="373.9448,-190.7003 376.4802,-180.4133 368.0831,-186.8739 373.9448,-190.7003"/>
</g>
<!-- 10&#45;&gt;0 -->
<g id="edge5" class="edge">
<title>10&#45;&gt;0</title>
<path fill="none" stroke="#c0c0c0" stroke-width="2" d="M155.8185,-71.8314C175.8806,-61.2103 201.1755,-47.8188 221.5173,-37.0497"/>
<polygon fill="#c0c0c0" stroke="#c0c0c0" stroke-width="2" points="223.2781,-40.0778 230.4783,-32.3056 220.0028,-33.8912 223.2781,-40.0778"/>
</g>
<!-- 11 -->
<g id="node12" class="node">
<title>11</title>
<path fill="none" stroke="#d85656" stroke-width="2" d="M546,-180C546,-180 463,-180 463,-180 457,-180 451,-174 451,-168 451,-168 451,-156 451,-156 451,-150 457,-144 463,-144 463,-144 546,-144 546,-144 552,-144 558,-150 558,-156 558,-156 558,-168 558,-168 558,-174 552,-180 546,-180"/>
<text text-anchor="middle" x="504.5" y="-159.5" font-family="sans" font-size="10.00" fill="#000000">bedGraphtobigWig</text>
</g>
<!-- 11&#45;&gt;0 -->
<g id="edge6" class="edge">
<title>11&#45;&gt;0</title>
<path fill="none" stroke="#c0c0c0" stroke-width="2" d="M491.1843,-143.9816C475.4205,-123.8219 447.3809,-91.4477 416.5,-72 378.3833,-47.9955 328.3548,-33.2957 294.68,-25.4133"/>
<polygon fill="#c0c0c0" stroke="#c0c0c0" stroke-width="2" points="295.3104,-21.9676 284.7856,-23.1831 293.7712,-28.7963 295.3104,-21.9676"/>
</g>
<!-- 12 -->
<g id="node13" class="node">
<title>12</title>
<path fill="none" stroke="#b6d856" stroke-width="2" d="M437.5,-252C437.5,-252 407.5,-252 407.5,-252 401.5,-252 395.5,-246 395.5,-240 395.5,-240 395.5,-228 395.5,-228 395.5,-222 401.5,-216 407.5,-216 407.5,-216 437.5,-216 437.5,-216 443.5,-216 449.5,-222 449.5,-228 449.5,-228 449.5,-240 449.5,-240 449.5,-246 443.5,-252 437.5,-252"/>
<text text-anchor="middle" x="422.5" y="-231.5" font-family="sans" font-size="10.00" fill="#000000">chrsize</text>
</g>
<!-- 12&#45;&gt;11 -->
<g id="edge19" class="edge">
<title>12&#45;&gt;11</title>
<path fill="none" stroke="#c0c0c0" stroke-width="2" d="M443.1921,-215.8314C453.1948,-207.0485 465.355,-196.3712 476.1999,-186.8489"/>
<polygon fill="#c0c0c0" stroke="#c0c0c0" stroke-width="2" points="478.6094,-189.3909 483.8146,-180.1628 473.9908,-184.1308 478.6094,-189.3909"/>
</g>
<!-- 13&#45;&gt;11 -->
<g id="edge20" class="edge">
<title>13&#45;&gt;11</title>
<path fill="none" stroke="#c0c0c0" stroke-width="2" d="M504.5,-215.8314C504.5,-208.131 504.5,-198.9743 504.5,-190.4166"/>
<polygon fill="#c0c0c0" stroke="#c0c0c0" stroke-width="2" points="508.0001,-190.4132 504.5,-180.4133 501.0001,-190.4133 508.0001,-190.4132"/>
</g>
<!-- 14&#45;&gt;0 -->
<g id="edge7" class="edge">
<title>14&#45;&gt;0</title>
<path fill="none" stroke="#c0c0c0" stroke-width="2" d="M257.5,-71.8314C257.5,-64.131 257.5,-54.9743 257.5,-46.4166"/>
<polygon fill="#c0c0c0" stroke="#c0c0c0" stroke-width="2" points="261.0001,-46.4132 257.5,-36.4133 254.0001,-46.4133 261.0001,-46.4132"/>
</g>
</g>
</svg>
