<?xml version="1.0" encoding="UTF-8" standalone="no"?>
<!DOCTYPE svg PUBLIC "-//W3C//DTD SVG 1.1//EN"
 "http://www.w3.org/Graphics/SVG/1.1/DTD/svg11.dtd">
<!-- Generated by graphviz version 2.40.1 (20161225.0304)
 -->
<!-- Title: snakemake_dag Pages: 1 -->
<svg width="263pt" height="548pt"
 viewBox="0.00 0.00 263.00 548.00" xmlns="http://www.w3.org/2000/svg" xmlns:xlink="http://www.w3.org/1999/xlink">
<g id="graph0" class="graph" transform="scale(1 1) rotate(0) translate(4 544)">
<title>snakemake_dag</title>
<polygon fill="#ffffff" stroke="transparent" points="-4,4 -4,-544 259,-544 259,4 -4,4"/>
<!-- 0 -->
<g id="node1" class="node">
<title>0</title>
<path fill="none" stroke="#8fd856" stroke-width="2" stroke-dasharray="5,2" d="M128,-36C128,-36 98,-36 98,-36 92,-36 86,-30 86,-24 86,-24 86,-12 86,-12 86,-6 92,0 98,0 98,0 128,0 128,0 134,0 140,-6 140,-12 140,-12 140,-24 140,-24 140,-30 134,-36 128,-36"/>
<text text-anchor="middle" x="113" y="-15.5" font-family="sans" font-size="10.00" fill="#000000">all</text>
</g>
<!-- 1 -->
<g id="node2" class="node">
<title>1</title>
<path fill="none" stroke="#56d0d8" stroke-width="2" stroke-dasharray="5,2" d="M42,-324C42,-324 12,-324 12,-324 6,-324 0,-318 0,-312 0,-312 0,-300 0,-300 0,-294 6,-288 12,-288 12,-288 42,-288 42,-288 48,-288 54,-294 54,-300 54,-300 54,-312 54,-312 54,-318 48,-324 42,-324"/>
<text text-anchor="middle" x="27" y="-303.5" font-family="sans" font-size="10.00" fill="#000000">fastqc</text>
</g>
<!-- 1&#45;&gt;0 -->
<g id="edge1" class="edge">
<title>1&#45;&gt;0</title>
<path fill="none" stroke="#c0c0c0" stroke-width="2" d="M26.8173,-287.8269C27.0033,-269.4735 28.3168,-240.423 34,-216 48.7454,-152.6325 80.4912,-82.928 98.9366,-45.4695"/>
<polygon fill="#c0c0c0" stroke="#c0c0c0" stroke-width="2" points="102.2145,-46.739 103.5413,-36.2275 95.949,-43.6173 102.2145,-46.739"/>
</g>
<!-- 2 -->
<g id="node3" class="node">
<title>2</title>
<path fill="none" stroke="#68d856" stroke-width="2" stroke-dasharray="5,2" d="M109,-468C109,-468 79,-468 79,-468 73,-468 67,-462 67,-456 67,-456 67,-444 67,-444 67,-438 73,-432 79,-432 79,-432 109,-432 109,-432 115,-432 121,-438 121,-444 121,-444 121,-456 121,-456 121,-462 115,-468 109,-468"/>
<text text-anchor="middle" x="94" y="-447.5" font-family="sans" font-size="10.00" fill="#000000">nanofilt</text>
</g>
<!-- 2&#45;&gt;1 -->
<g id="edge5" class="edge">
<title>2&#45;&gt;1</title>
<path fill="none" stroke="#c0c0c0" stroke-width="2" d="M85.5144,-431.7623C73.9356,-406.8764 53.0938,-362.0822 39.6632,-333.2165"/>
<polygon fill="#c0c0c0" stroke="#c0c0c0" stroke-width="2" points="42.8086,-331.6798 35.4167,-324.0896 36.4619,-334.6328 42.8086,-331.6798"/>
</g>
<!-- 4 -->
<g id="node5" class="node">
<title>4</title>
<path fill="none" stroke="#56d8b9" stroke-width="2" stroke-dasharray="5,2" d="M133,-252C133,-252 55,-252 55,-252 49,-252 43,-246 43,-240 43,-240 43,-228 43,-228 43,-222 49,-216 55,-216 55,-216 133,-216 133,-216 139,-216 145,-222 145,-228 145,-228 145,-240 145,-240 145,-246 139,-252 133,-252"/>
<text text-anchor="middle" x="94" y="-231.5" font-family="sans" font-size="10.00" fill="#000000">pre_aln_NanoPlot</text>
</g>
<!-- 2&#45;&gt;4 -->
<g id="edge7" class="edge">
<title>2&#45;&gt;4</title>
<path fill="none" stroke="#c0c0c0" stroke-width="2" d="M94,-431.9555C94,-394.3938 94,-307.5541 94,-262.4103"/>
<polygon fill="#c0c0c0" stroke="#c0c0c0" stroke-width="2" points="97.5001,-262.145 94,-252.1451 90.5001,-262.1451 97.5001,-262.145"/>
</g>
<!-- 8 -->
<g id="node9" class="node">
<title>8</title>
<path fill="none" stroke="#d85656" stroke-width="2" stroke-dasharray="5,2" d="M191,-396C191,-396 149,-396 149,-396 143,-396 137,-390 137,-384 137,-384 137,-372 137,-372 137,-366 143,-360 149,-360 149,-360 191,-360 191,-360 197,-360 203,-366 203,-372 203,-372 203,-384 203,-384 203,-390 197,-396 191,-396"/>
<text text-anchor="middle" x="170" y="-375.5" font-family="sans" font-size="10.00" fill="#000000">minimap2</text>
</g>
<!-- 2&#45;&gt;8 -->
<g id="edge11" class="edge">
<title>2&#45;&gt;8</title>
<path fill="none" stroke="#c0c0c0" stroke-width="2" d="M113.178,-431.8314C122.3588,-423.1337 133.5006,-412.5783 143.4776,-403.1265"/>
<polygon fill="#c0c0c0" stroke="#c0c0c0" stroke-width="2" points="145.9757,-405.5811 150.8281,-396.1628 141.1615,-400.4995 145.9757,-405.5811"/>
</g>
<!-- 3 -->
<g id="node4" class="node">
<title>3</title>
<path fill="none" stroke="#d8cb56" stroke-width="2" stroke-dasharray="5,2" d="M113,-540C113,-540 75,-540 75,-540 69,-540 63,-534 63,-528 63,-528 63,-516 63,-516 63,-510 69,-504 75,-504 75,-504 113,-504 113,-504 119,-504 125,-510 125,-516 125,-516 125,-528 125,-528 125,-534 119,-540 113,-540"/>
<text text-anchor="middle" x="94" y="-519.5" font-family="sans" font-size="10.00" fill="#000000">porechop</text>
</g>
<!-- 3&#45;&gt;2 -->
<g id="edge6" class="edge">
<title>3&#45;&gt;2</title>
<path fill="none" stroke="#c0c0c0" stroke-width="2" d="M94,-503.8314C94,-496.131 94,-486.9743 94,-478.4166"/>
<polygon fill="#c0c0c0" stroke="#c0c0c0" stroke-width="2" points="97.5001,-478.4132 94,-468.4133 90.5001,-478.4133 97.5001,-478.4132"/>
</g>
<!-- 4&#45;&gt;0 -->
<g id="edge2" class="edge">
<title>4&#45;&gt;0</title>
<path fill="none" stroke="#c0c0c0" stroke-width="2" d="M95.5872,-215.9555C98.8983,-178.3144 106.5623,-91.1867 110.5261,-46.1246"/>
<polygon fill="#c0c0c0" stroke="#c0c0c0" stroke-width="2" points="114.0141,-46.4133 111.4039,-36.1451 107.041,-45.7999 114.0141,-46.4133"/>
</g>
<!-- 5 -->
<g id="node6" class="node">
<title>5</title>
<path fill="none" stroke="#b6d856" stroke-width="2" stroke-dasharray="5,2" d="M230,-180C230,-180 156,-180 156,-180 150,-180 144,-174 144,-168 144,-168 144,-156 144,-156 144,-150 150,-144 156,-144 156,-144 230,-144 230,-144 236,-144 242,-150 242,-156 242,-156 242,-168 242,-168 242,-174 236,-180 230,-180"/>
<text text-anchor="middle" x="193" y="-159.5" font-family="sans" font-size="10.00" fill="#000000">mm2_nano_final</text>
</g>
<!-- 5&#45;&gt;0 -->
<g id="edge3" class="edge">
<title>5&#45;&gt;0</title>
<path fill="none" stroke="#c0c0c0" stroke-width="2" d="M176.9571,-143.8682C168.5354,-133.7712 158.4487,-120.7047 151,-108 139.347,-88.1242 129.3611,-64.0001 122.5543,-45.7329"/>
<polygon fill="#c0c0c0" stroke="#c0c0c0" stroke-width="2" points="125.8139,-44.455 119.1094,-36.2513 119.2346,-46.8454 125.8139,-44.455"/>
</g>
<!-- 9 -->
<g id="node10" class="node">
<title>9</title>
<path fill="none" stroke="#56d892" stroke-width="2" stroke-dasharray="5,2" d="M213.5,-108C213.5,-108 172.5,-108 172.5,-108 166.5,-108 160.5,-102 160.5,-96 160.5,-96 160.5,-84 160.5,-84 160.5,-78 166.5,-72 172.5,-72 172.5,-72 213.5,-72 213.5,-72 219.5,-72 225.5,-78 225.5,-84 225.5,-84 225.5,-96 225.5,-96 225.5,-102 219.5,-108 213.5,-108"/>
<text text-anchor="middle" x="193" y="-87.5" font-family="sans" font-size="10.00" fill="#000000">plot_chart</text>
</g>
<!-- 5&#45;&gt;9 -->
<g id="edge12" class="edge">
<title>5&#45;&gt;9</title>
<path fill="none" stroke="#c0c0c0" stroke-width="2" d="M193,-143.8314C193,-136.131 193,-126.9743 193,-118.4166"/>
<polygon fill="#c0c0c0" stroke="#c0c0c0" stroke-width="2" points="196.5001,-118.4132 193,-108.4133 189.5001,-118.4133 196.5001,-118.4132"/>
</g>
<!-- 6 -->
<g id="node7" class="node">
<title>6</title>
<path fill="none" stroke="#56a9d8" stroke-width="2" stroke-dasharray="5,2" d="M243,-252C243,-252 175,-252 175,-252 169,-252 163,-246 163,-240 163,-240 163,-228 163,-228 163,-222 169,-216 175,-216 175,-216 243,-216 243,-216 249,-216 255,-222 255,-228 255,-228 255,-240 255,-240 255,-246 249,-252 243,-252"/>
<text text-anchor="middle" x="209" y="-231.5" font-family="sans" font-size="10.00" fill="#000000">mm2_NanoPlot</text>
</g>
<!-- 6&#45;&gt;5 -->
<g id="edge8" class="edge">
<title>6&#45;&gt;5</title>
<path fill="none" stroke="#c0c0c0" stroke-width="2" d="M204.9625,-215.8314C203.2513,-208.131 201.2165,-198.9743 199.3148,-190.4166"/>
<polygon fill="#c0c0c0" stroke="#c0c0c0" stroke-width="2" points="202.6779,-189.4159 197.0918,-180.4133 195.8446,-190.9344 202.6779,-189.4159"/>
</g>
<!-- 7 -->
<g id="node8" class="node">
<title>7</title>
<path fill="none" stroke="#d87d56" stroke-width="2" stroke-dasharray="5,2" d="M213,-324C213,-324 157,-324 157,-324 151,-324 145,-318 145,-312 145,-312 145,-300 145,-300 145,-294 151,-288 157,-288 157,-288 213,-288 213,-288 219,-288 225,-294 225,-300 225,-300 225,-312 225,-312 225,-318 219,-324 213,-324"/>
<text text-anchor="middle" x="185" y="-303.5" font-family="sans" font-size="10.00" fill="#000000">sam_to_bam</text>
</g>
<!-- 7&#45;&gt;6 -->
<g id="edge9" class="edge">
<title>7&#45;&gt;6</title>
<path fill="none" stroke="#c0c0c0" stroke-width="2" d="M191.0562,-287.8314C193.6512,-280.0463 196.7424,-270.7729 199.6218,-262.1347"/>
<polygon fill="#c0c0c0" stroke="#c0c0c0" stroke-width="2" points="203.0203,-263.0069 202.8622,-252.4133 196.3795,-260.7933 203.0203,-263.0069"/>
</g>
<!-- 8&#45;&gt;7 -->
<g id="edge10" class="edge">
<title>8&#45;&gt;7</title>
<path fill="none" stroke="#c0c0c0" stroke-width="2" d="M173.7851,-359.8314C175.3894,-352.131 177.297,-342.9743 179.0799,-334.4166"/>
<polygon fill="#c0c0c0" stroke="#c0c0c0" stroke-width="2" points="182.5507,-334.9169 181.1639,-324.4133 175.6979,-333.4892 182.5507,-334.9169"/>
</g>
<!-- 9&#45;&gt;0 -->
<g id="edge4" class="edge">
<title>9&#45;&gt;0</title>
<path fill="none" stroke="#c0c0c0" stroke-width="2" d="M172.8126,-71.8314C163.1486,-63.1337 151.4204,-52.5783 140.9184,-43.1265"/>
<polygon fill="#c0c0c0" stroke="#c0c0c0" stroke-width="2" points="142.9553,-40.251 133.1809,-36.1628 138.2725,-45.454 142.9553,-40.251"/>
</g>
</g>
</svg>
