<?xml version="1.0" encoding="UTF-8" standalone="no"?>
<!DOCTYPE svg PUBLIC "-//W3C//DTD SVG 1.1//EN"
 "http://www.w3.org/Graphics/SVG/1.1/DTD/svg11.dtd">
<!-- Generated by graphviz version 2.42.3 (20191010.1750)
 -->
<!-- Title: snakemake_dag Pages: 1 -->
<svg width="285pt" height="548pt"
 viewBox="0.00 0.00 285.00 548.00" xmlns="http://www.w3.org/2000/svg" xmlns:xlink="http://www.w3.org/1999/xlink">
<g id="graph0" class="graph" transform="scale(1 1) rotate(0) translate(4 544)">
<title>snakemake_dag</title>
<polygon fill="white" stroke="transparent" points="-4,4 -4,-544 281,-544 281,4 -4,4"/>
<!-- 0 -->
<g id="node1" class="node">
<title>0</title>
<path fill="none" stroke="#56d8d8" stroke-width="2" stroke-dasharray="5,2" d="M128,-36C128,-36 98,-36 98,-36 92,-36 86,-30 86,-24 86,-24 86,-12 86,-12 86,-6 92,0 98,0 98,0 128,0 128,0 134,0 140,-6 140,-12 140,-12 140,-24 140,-24 140,-30 134,-36 128,-36"/>
<text text-anchor="middle" x="113" y="-15.5" font-family="sans" font-size="10.00">all</text>
</g>
<!-- 1 -->
<g id="node2" class="node">
<title>1</title>
<path fill="none" stroke="#5682d8" stroke-width="2" stroke-dasharray="5,2" d="M42,-252C42,-252 12,-252 12,-252 6,-252 0,-246 0,-240 0,-240 0,-228 0,-228 0,-222 6,-216 12,-216 12,-216 42,-216 42,-216 48,-216 54,-222 54,-228 54,-228 54,-240 54,-240 54,-246 48,-252 42,-252"/>
<text text-anchor="middle" x="27" y="-231.5" font-family="sans" font-size="10.00">fastqc</text>
</g>
<!-- 1&#45;&gt;0 -->
<g id="edge1" class="edge">
<title>1&#45;&gt;0</title>
<path fill="none" stroke="grey" stroke-width="2" d="M25.94,-215.79C25.37,-197.5 26.03,-167.97 34,-144 46.61,-106.08 73.09,-68.07 91.91,-44.09"/>
<polygon fill="grey" stroke="grey" stroke-width="2" points="94.7,-46.21 98.22,-36.21 89.23,-41.83 94.7,-46.21"/>
</g>
<!-- 2 -->
<g id="node3" class="node">
<title>2</title>
<path fill="none" stroke="#afd856" stroke-width="2" stroke-dasharray="5,2" d="M109,-396C109,-396 79,-396 79,-396 73,-396 67,-390 67,-384 67,-384 67,-372 67,-372 67,-366 73,-360 79,-360 79,-360 109,-360 109,-360 115,-360 121,-366 121,-372 121,-372 121,-384 121,-384 121,-390 115,-396 109,-396"/>
<text text-anchor="middle" x="94" y="-375.5" font-family="sans" font-size="10.00">nanofilt</text>
</g>
<!-- 2&#45;&gt;1 -->
<g id="edge5" class="edge">
<title>2&#45;&gt;1</title>
<path fill="none" stroke="grey" stroke-width="2" d="M85.92,-359.87C74.35,-335.35 52.97,-290.03 39.39,-261.26"/>
<polygon fill="grey" stroke="grey" stroke-width="2" points="42.54,-259.74 35.11,-252.19 36.21,-262.73 42.54,-259.74"/>
</g>
<!-- 5 -->
<g id="node6" class="node">
<title>5</title>
<path fill="none" stroke="#56d8a9" stroke-width="2" stroke-dasharray="5,2" d="M133,-180C133,-180 55,-180 55,-180 49,-180 43,-174 43,-168 43,-168 43,-156 43,-156 43,-150 49,-144 55,-144 55,-144 133,-144 133,-144 139,-144 145,-150 145,-156 145,-156 145,-168 145,-168 145,-174 139,-180 133,-180"/>
<text text-anchor="middle" x="94" y="-159.5" font-family="sans" font-size="10.00">pre_aln_NanoPlot</text>
</g>
<!-- 2&#45;&gt;5 -->
<g id="edge8" class="edge">
<title>2&#45;&gt;5</title>
<path fill="none" stroke="grey" stroke-width="2" d="M94,-359.85C94,-322.83 94,-235.18 94,-190.39"/>
<polygon fill="grey" stroke="grey" stroke-width="2" points="97.5,-190.23 94,-180.23 90.5,-190.23 97.5,-190.23"/>
</g>
<!-- 9 -->
<g id="node10" class="node">
<title>9</title>
<path fill="none" stroke="#56a9d8" stroke-width="2" stroke-dasharray="5,2" d="M191,-324C191,-324 149,-324 149,-324 143,-324 137,-318 137,-312 137,-312 137,-300 137,-300 137,-294 143,-288 149,-288 149,-288 191,-288 191,-288 197,-288 203,-294 203,-300 203,-300 203,-312 203,-312 203,-318 197,-324 191,-324"/>
<text text-anchor="middle" x="170" y="-303.5" font-family="sans" font-size="10.00">minimap2</text>
</g>
<!-- 2&#45;&gt;9 -->
<g id="edge12" class="edge">
<title>2&#45;&gt;9</title>
<path fill="none" stroke="grey" stroke-width="2" d="M112.79,-359.7C122.17,-351.05 133.68,-340.45 143.91,-331.03"/>
<polygon fill="grey" stroke="grey" stroke-width="2" points="146.45,-333.45 151.43,-324.1 141.7,-328.3 146.45,-333.45"/>
</g>
<!-- 3 -->
<g id="node4" class="node">
<title>3</title>
<path fill="none" stroke="#d85656" stroke-width="2" stroke-dasharray="5,2" d="M113,-468C113,-468 75,-468 75,-468 69,-468 63,-462 63,-456 63,-456 63,-444 63,-444 63,-438 69,-432 75,-432 75,-432 113,-432 113,-432 119,-432 125,-438 125,-444 125,-444 125,-456 125,-456 125,-462 119,-468 113,-468"/>
<text text-anchor="middle" x="94" y="-447.5" font-family="sans" font-size="10.00">porechop</text>
</g>
<!-- 3&#45;&gt;2 -->
<g id="edge6" class="edge">
<title>3&#45;&gt;2</title>
<path fill="none" stroke="grey" stroke-width="2" d="M94,-431.7C94,-423.98 94,-414.71 94,-406.11"/>
<polygon fill="grey" stroke="grey" stroke-width="2" points="97.5,-406.1 94,-396.1 90.5,-406.1 97.5,-406.1"/>
</g>
<!-- 4 -->
<g id="node5" class="node">
<title>4</title>
<path fill="none" stroke="#d6d856" stroke-width="2" stroke-dasharray="5,2" d="M114.5,-540C114.5,-540 73.5,-540 73.5,-540 67.5,-540 61.5,-534 61.5,-528 61.5,-528 61.5,-516 61.5,-516 61.5,-510 67.5,-504 73.5,-504 73.5,-504 114.5,-504 114.5,-504 120.5,-504 126.5,-510 126.5,-516 126.5,-516 126.5,-528 126.5,-528 126.5,-534 120.5,-540 114.5,-540"/>
<text text-anchor="middle" x="94" y="-525" font-family="sans" font-size="10.00">prep_data</text>
<text text-anchor="middle" x="94" y="-514" font-family="sans" font-size="10.00">sample: A</text>
</g>
<!-- 4&#45;&gt;3 -->
<g id="edge7" class="edge">
<title>4&#45;&gt;3</title>
<path fill="none" stroke="grey" stroke-width="2" d="M94,-503.7C94,-495.98 94,-486.71 94,-478.11"/>
<polygon fill="grey" stroke="grey" stroke-width="2" points="97.5,-478.1 94,-468.1 90.5,-478.1 97.5,-478.1"/>
</g>
<!-- 5&#45;&gt;0 -->
<g id="edge2" class="edge">
<title>5&#45;&gt;0</title>
<path fill="none" stroke="grey" stroke-width="2" d="M91.49,-143.76C89.35,-125.7 87.31,-96.59 92,-72 93.71,-63.06 96.9,-53.7 100.29,-45.37"/>
<polygon fill="grey" stroke="grey" stroke-width="2" points="103.51,-46.73 104.28,-36.17 97.09,-43.95 103.51,-46.73"/>
</g>
<!-- 6 -->
<g id="node7" class="node">
<title>6</title>
<path fill="none" stroke="#56d882" stroke-width="2" stroke-dasharray="5,2" d="M192.5,-108C192.5,-108 113.5,-108 113.5,-108 107.5,-108 101.5,-102 101.5,-96 101.5,-96 101.5,-84 101.5,-84 101.5,-78 107.5,-72 113.5,-72 113.5,-72 192.5,-72 192.5,-72 198.5,-72 204.5,-78 204.5,-84 204.5,-84 204.5,-96 204.5,-96 204.5,-102 198.5,-108 192.5,-108"/>
<text text-anchor="middle" x="153" y="-87.5" font-family="sans" font-size="10.00">mm2_final_report</text>
</g>
<!-- 6&#45;&gt;0 -->
<g id="edge3" class="edge">
<title>6&#45;&gt;0</title>
<path fill="none" stroke="grey" stroke-width="2" d="M143.11,-71.7C138.51,-63.64 132.94,-53.89 127.85,-44.98"/>
<polygon fill="grey" stroke="grey" stroke-width="2" points="130.77,-43.05 122.77,-36.1 124.7,-46.52 130.77,-43.05"/>
</g>
<!-- 7 -->
<g id="node8" class="node">
<title>7</title>
<path fill="none" stroke="#d8ac56" stroke-width="2" stroke-dasharray="5,2" d="M243,-180C243,-180 175,-180 175,-180 169,-180 163,-174 163,-168 163,-168 163,-156 163,-156 163,-150 169,-144 175,-144 175,-144 243,-144 243,-144 249,-144 255,-150 255,-156 255,-156 255,-168 255,-168 255,-174 249,-180 243,-180"/>
<text text-anchor="middle" x="209" y="-159.5" font-family="sans" font-size="10.00">mm2_NanoPlot</text>
</g>
<!-- 7&#45;&gt;6 -->
<g id="edge9" class="edge">
<title>7&#45;&gt;6</title>
<path fill="none" stroke="grey" stroke-width="2" d="M195.16,-143.7C188.51,-135.39 180.42,-125.28 173.11,-116.14"/>
<polygon fill="grey" stroke="grey" stroke-width="2" points="175.66,-113.73 166.68,-108.1 170.2,-118.1 175.66,-113.73"/>
</g>
<!-- 10 -->
<g id="node11" class="node">
<title>10</title>
<path fill="none" stroke="#d88556" stroke-width="2" stroke-dasharray="5,2" d="M265,-108C265,-108 235,-108 235,-108 229,-108 223,-102 223,-96 223,-96 223,-84 223,-84 223,-78 229,-72 235,-72 235,-72 265,-72 265,-72 271,-72 277,-78 277,-84 277,-84 277,-96 277,-96 277,-102 271,-108 265,-108"/>
<text text-anchor="middle" x="250" y="-87.5" font-family="sans" font-size="10.00">bench</text>
</g>
<!-- 7&#45;&gt;10 -->
<g id="edge13" class="edge">
<title>7&#45;&gt;10</title>
<path fill="none" stroke="grey" stroke-width="2" d="M219.13,-143.7C223.85,-135.64 229.56,-125.89 234.78,-116.98"/>
<polygon fill="grey" stroke="grey" stroke-width="2" points="237.95,-118.5 239.98,-108.1 231.91,-114.96 237.95,-118.5"/>
</g>
<!-- 8 -->
<g id="node9" class="node">
<title>8</title>
<path fill="none" stroke="#80d856" stroke-width="2" stroke-dasharray="5,2" d="M213,-252C213,-252 157,-252 157,-252 151,-252 145,-246 145,-240 145,-240 145,-228 145,-228 145,-222 151,-216 157,-216 157,-216 213,-216 213,-216 219,-216 225,-222 225,-228 225,-228 225,-240 225,-240 225,-246 219,-252 213,-252"/>
<text text-anchor="middle" x="185" y="-231.5" font-family="sans" font-size="10.00">sam_to_bam</text>
</g>
<!-- 8&#45;&gt;7 -->
<g id="edge10" class="edge">
<title>8&#45;&gt;7</title>
<path fill="none" stroke="grey" stroke-width="2" d="M190.93,-215.7C193.61,-207.9 196.83,-198.51 199.8,-189.83"/>
<polygon fill="grey" stroke="grey" stroke-width="2" points="203.2,-190.7 203.14,-180.1 196.58,-188.43 203.2,-190.7"/>
</g>
<!-- 9&#45;&gt;8 -->
<g id="edge11" class="edge">
<title>9&#45;&gt;8</title>
<path fill="none" stroke="grey" stroke-width="2" d="M173.71,-287.7C175.36,-279.98 177.35,-270.71 179.19,-262.11"/>
<polygon fill="grey" stroke="grey" stroke-width="2" points="182.66,-262.62 181.33,-252.1 175.82,-261.15 182.66,-262.62"/>
</g>
<!-- 10&#45;&gt;0 -->
<g id="edge4" class="edge">
<title>10&#45;&gt;0</title>
<path fill="none" stroke="grey" stroke-width="2" d="M222.93,-75.17C201.82,-64.38 172.31,-49.3 149.17,-37.48"/>
<polygon fill="grey" stroke="grey" stroke-width="2" points="150.51,-34.23 140.01,-32.8 147.32,-40.47 150.51,-34.23"/>
</g>
</g>
</svg>
