<?xml version="1.0" encoding="UTF-8" standalone="no"?>
<!DOCTYPE svg PUBLIC "-//W3C//DTD SVG 1.1//EN"
 "http://www.w3.org/Graphics/SVG/1.1/DTD/svg11.dtd">
<!-- Generated by graphviz version 2.42.3 (20191010.1750)
 -->
<!-- Title: snakemake_dag Pages: 1 -->
<svg width="281pt" height="476pt"
 viewBox="0.00 0.00 281.00 476.00" xmlns="http://www.w3.org/2000/svg" xmlns:xlink="http://www.w3.org/1999/xlink">
<g id="graph0" class="graph" transform="scale(1 1) rotate(0) translate(4 472)">
<title>snakemake_dag</title>
<polygon fill="white" stroke="transparent" points="-4,4 -4,-472 277,-472 277,4 -4,4"/>
<!-- 0 -->
<g id="node1" class="node">
<title>0</title>
<path fill="none" stroke="#d8bc56" stroke-width="2" stroke-dasharray="5,2" d="M109,-36C109,-36 79,-36 79,-36 73,-36 67,-30 67,-24 67,-24 67,-12 67,-12 67,-6 73,0 79,0 79,0 109,0 109,0 115,0 121,-6 121,-12 121,-12 121,-24 121,-24 121,-30 115,-36 109,-36"/>
<text text-anchor="middle" x="94" y="-15.5" font-family="sans" font-size="10.00">all</text>
</g>
<!-- 1 -->
<g id="node2" class="node">
<title>1</title>
<path fill="none" stroke="#56d88a" stroke-width="2" stroke-dasharray="5,2" d="M42,-180C42,-180 12,-180 12,-180 6,-180 0,-174 0,-168 0,-168 0,-156 0,-156 0,-150 6,-144 12,-144 12,-144 42,-144 42,-144 48,-144 54,-150 54,-156 54,-156 54,-168 54,-168 54,-174 48,-180 42,-180"/>
<text text-anchor="middle" x="27" y="-159.5" font-family="sans" font-size="10.00">fastqc</text>
</g>
<!-- 1&#45;&gt;0 -->
<g id="edge1" class="edge">
<title>1&#45;&gt;0</title>
<path fill="none" stroke="grey" stroke-width="2" d="M24.7,-143.93C22.97,-125.24 22.58,-94.88 34,-72 39.72,-60.54 49.1,-50.45 58.77,-42.25"/>
<polygon fill="grey" stroke="grey" stroke-width="2" points="61.22,-44.77 66.88,-35.81 56.87,-39.29 61.22,-44.77"/>
</g>
<!-- 2 -->
<g id="node3" class="node">
<title>2</title>
<path fill="none" stroke="#bed856" stroke-width="2" stroke-dasharray="5,2" d="M109,-324C109,-324 79,-324 79,-324 73,-324 67,-318 67,-312 67,-312 67,-300 67,-300 67,-294 73,-288 79,-288 79,-288 109,-288 109,-288 115,-288 121,-294 121,-300 121,-300 121,-312 121,-312 121,-318 115,-324 109,-324"/>
<text text-anchor="middle" x="94" y="-303.5" font-family="sans" font-size="10.00">nanofilt</text>
</g>
<!-- 2&#45;&gt;1 -->
<g id="edge4" class="edge">
<title>2&#45;&gt;1</title>
<path fill="none" stroke="grey" stroke-width="2" d="M85.92,-287.87C74.35,-263.35 52.97,-218.03 39.39,-189.26"/>
<polygon fill="grey" stroke="grey" stroke-width="2" points="42.54,-187.74 35.11,-180.19 36.21,-190.73 42.54,-187.74"/>
</g>
<!-- 5 -->
<g id="node6" class="node">
<title>5</title>
<path fill="none" stroke="#56c1d8" stroke-width="2" stroke-dasharray="5,2" d="M133,-108C133,-108 55,-108 55,-108 49,-108 43,-102 43,-96 43,-96 43,-84 43,-84 43,-78 49,-72 55,-72 55,-72 133,-72 133,-72 139,-72 145,-78 145,-84 145,-84 145,-96 145,-96 145,-102 139,-108 133,-108"/>
<text text-anchor="middle" x="94" y="-87.5" font-family="sans" font-size="10.00">pre_aln_NanoPlot</text>
</g>
<!-- 2&#45;&gt;5 -->
<g id="edge7" class="edge">
<title>2&#45;&gt;5</title>
<path fill="none" stroke="grey" stroke-width="2" d="M94,-287.85C94,-250.83 94,-163.18 94,-118.39"/>
<polygon fill="grey" stroke="grey" stroke-width="2" points="97.5,-118.23 94,-108.23 90.5,-118.23 97.5,-118.23"/>
</g>
<!-- 8 -->
<g id="node9" class="node">
<title>8</title>
<path fill="none" stroke="#568ad8" stroke-width="2" stroke-dasharray="5,2" d="M186,-252C186,-252 156,-252 156,-252 150,-252 144,-246 144,-240 144,-240 144,-228 144,-228 144,-222 150,-216 156,-216 156,-216 186,-216 186,-216 192,-216 198,-222 198,-228 198,-228 198,-240 198,-240 198,-246 192,-252 186,-252"/>
<text text-anchor="middle" x="171" y="-231.5" font-family="sans" font-size="10.00">vulcan</text>
</g>
<!-- 2&#45;&gt;8 -->
<g id="edge10" class="edge">
<title>2&#45;&gt;8</title>
<path fill="none" stroke="grey" stroke-width="2" d="M113.03,-287.7C122.54,-279.05 134.21,-268.45 144.57,-259.03"/>
<polygon fill="grey" stroke="grey" stroke-width="2" points="147.14,-261.42 152.19,-252.1 142.43,-256.24 147.14,-261.42"/>
</g>
<!-- 3 -->
<g id="node4" class="node">
<title>3</title>
<path fill="none" stroke="#d85656" stroke-width="2" stroke-dasharray="5,2" d="M113,-396C113,-396 75,-396 75,-396 69,-396 63,-390 63,-384 63,-384 63,-372 63,-372 63,-366 69,-360 75,-360 75,-360 113,-360 113,-360 119,-360 125,-366 125,-372 125,-372 125,-384 125,-384 125,-390 119,-396 113,-396"/>
<text text-anchor="middle" x="94" y="-375.5" font-family="sans" font-size="10.00">porechop</text>
</g>
<!-- 3&#45;&gt;2 -->
<g id="edge5" class="edge">
<title>3&#45;&gt;2</title>
<path fill="none" stroke="grey" stroke-width="2" d="M94,-359.7C94,-351.98 94,-342.71 94,-334.11"/>
<polygon fill="grey" stroke="grey" stroke-width="2" points="97.5,-334.1 94,-324.1 90.5,-334.1 97.5,-334.1"/>
</g>
<!-- 4 -->
<g id="node5" class="node">
<title>4</title>
<path fill="none" stroke="#d88d56" stroke-width="2" stroke-dasharray="5,2" d="M114.5,-468C114.5,-468 73.5,-468 73.5,-468 67.5,-468 61.5,-462 61.5,-456 61.5,-456 61.5,-444 61.5,-444 61.5,-438 67.5,-432 73.5,-432 73.5,-432 114.5,-432 114.5,-432 120.5,-432 126.5,-438 126.5,-444 126.5,-444 126.5,-456 126.5,-456 126.5,-462 120.5,-468 114.5,-468"/>
<text text-anchor="middle" x="94" y="-453" font-family="sans" font-size="10.00">prep_data</text>
<text text-anchor="middle" x="94" y="-442" font-family="sans" font-size="10.00">sample: A</text>
</g>
<!-- 4&#45;&gt;3 -->
<g id="edge6" class="edge">
<title>4&#45;&gt;3</title>
<path fill="none" stroke="grey" stroke-width="2" d="M94,-431.7C94,-423.98 94,-414.71 94,-406.11"/>
<polygon fill="grey" stroke="grey" stroke-width="2" points="97.5,-406.1 94,-396.1 90.5,-406.1 97.5,-406.1"/>
</g>
<!-- 5&#45;&gt;0 -->
<g id="edge2" class="edge">
<title>5&#45;&gt;0</title>
<path fill="none" stroke="grey" stroke-width="2" d="M94,-71.7C94,-63.98 94,-54.71 94,-46.11"/>
<polygon fill="grey" stroke="grey" stroke-width="2" points="97.5,-46.1 94,-36.1 90.5,-46.1 97.5,-46.1"/>
</g>
<!-- 6 -->
<g id="node7" class="node">
<title>6</title>
<path fill="none" stroke="#88d856" stroke-width="2" stroke-dasharray="5,2" d="M261,-108C261,-108 175,-108 175,-108 169,-108 163,-102 163,-96 163,-96 163,-84 163,-84 163,-78 169,-72 175,-72 175,-72 261,-72 261,-72 267,-72 273,-78 273,-84 273,-84 273,-96 273,-96 273,-102 267,-108 261,-108"/>
<text text-anchor="middle" x="218" y="-87.5" font-family="sans" font-size="10.00">vulcan_final_report</text>
</g>
<!-- 6&#45;&gt;0 -->
<g id="edge3" class="edge">
<title>6&#45;&gt;0</title>
<path fill="none" stroke="grey" stroke-width="2" d="M187.67,-71.88C170.25,-62.04 148.27,-49.64 129.98,-39.31"/>
<polygon fill="grey" stroke="grey" stroke-width="2" points="131.5,-36.15 121.07,-34.28 128.05,-42.24 131.5,-36.15"/>
</g>
<!-- 7 -->
<g id="node8" class="node">
<title>7</title>
<path fill="none" stroke="#59d856" stroke-width="2" stroke-dasharray="5,2" d="M231,-180C231,-180 157,-180 157,-180 151,-180 145,-174 145,-168 145,-168 145,-156 145,-156 145,-150 151,-144 157,-144 157,-144 231,-144 231,-144 237,-144 243,-150 243,-156 243,-156 243,-168 243,-168 243,-174 237,-180 231,-180"/>
<text text-anchor="middle" x="194" y="-159.5" font-family="sans" font-size="10.00">vulcan_NanoPlot</text>
</g>
<!-- 7&#45;&gt;6 -->
<g id="edge8" class="edge">
<title>7&#45;&gt;6</title>
<path fill="none" stroke="grey" stroke-width="2" d="M199.93,-143.7C202.61,-135.9 205.83,-126.51 208.8,-117.83"/>
<polygon fill="grey" stroke="grey" stroke-width="2" points="212.2,-118.7 212.14,-108.1 205.58,-116.43 212.2,-118.7"/>
</g>
<!-- 8&#45;&gt;7 -->
<g id="edge9" class="edge">
<title>8&#45;&gt;7</title>
<path fill="none" stroke="grey" stroke-width="2" d="M176.69,-215.7C179.25,-207.9 182.33,-198.51 185.18,-189.83"/>
<polygon fill="grey" stroke="grey" stroke-width="2" points="188.58,-190.7 188.38,-180.1 181.93,-188.51 188.58,-190.7"/>
</g>
</g>
</svg>
