<?xml version="1.0" encoding="UTF-8" standalone="no"?>
<!DOCTYPE svg PUBLIC "-//W3C//DTD SVG 1.1//EN"
 "http://www.w3.org/Graphics/SVG/1.1/DTD/svg11.dtd">
<!-- Generated by graphviz version 2.42.3 (20191010.1750)
 -->
<!-- Title: snakemake_dag Pages: 1 -->
<svg width="306pt" height="476pt"
 viewBox="0.00 0.00 306.00 476.00" xmlns="http://www.w3.org/2000/svg" xmlns:xlink="http://www.w3.org/1999/xlink">
<g id="graph0" class="graph" transform="scale(1 1) rotate(0) translate(4 472)">
<title>snakemake_dag</title>
<polygon fill="white" stroke="transparent" points="-4,4 -4,-472 302,-472 302,4 -4,4"/>
<!-- 0 -->
<g id="node1" class="node">
<title>0</title>
<path fill="none" stroke="#56b1d8" stroke-width="2" stroke-dasharray="5,2" d="M144,-36C144,-36 114,-36 114,-36 108,-36 102,-30 102,-24 102,-24 102,-12 102,-12 102,-6 108,0 114,0 114,0 144,0 144,0 150,0 156,-6 156,-12 156,-12 156,-24 156,-24 156,-30 150,-36 144,-36"/>
<text text-anchor="middle" x="129" y="-15.5" font-family="sans" font-size="10.00">all</text>
</g>
<!-- 1 -->
<g id="node2" class="node">
<title>1</title>
<path fill="none" stroke="#9fd856" stroke-width="2" stroke-dasharray="5,2" d="M42,-180C42,-180 12,-180 12,-180 6,-180 0,-174 0,-168 0,-168 0,-156 0,-156 0,-150 6,-144 12,-144 12,-144 42,-144 42,-144 48,-144 54,-150 54,-156 54,-156 54,-168 54,-168 54,-174 48,-180 42,-180"/>
<text text-anchor="middle" x="27" y="-159.5" font-family="sans" font-size="10.00">fastqc</text>
</g>
<!-- 1&#45;&gt;0 -->
<g id="edge1" class="edge">
<title>1&#45;&gt;0</title>
<path fill="none" stroke="grey" stroke-width="2" d="M34.02,-143.99C42.15,-125.35 56.67,-95.04 74,-72 81.78,-61.65 91.63,-51.49 100.84,-42.87"/>
<polygon fill="grey" stroke="grey" stroke-width="2" points="103.32,-45.34 108.36,-36.03 98.61,-40.17 103.32,-45.34"/>
</g>
<!-- 2 -->
<g id="node3" class="node">
<title>2</title>
<path fill="none" stroke="#56d8c9" stroke-width="2" stroke-dasharray="5,2" d="M115,-324C115,-324 85,-324 85,-324 79,-324 73,-318 73,-312 73,-312 73,-300 73,-300 73,-294 79,-288 85,-288 85,-288 115,-288 115,-288 121,-288 127,-294 127,-300 127,-300 127,-312 127,-312 127,-318 121,-324 115,-324"/>
<text text-anchor="middle" x="100" y="-303.5" font-family="sans" font-size="10.00">nanofilt</text>
</g>
<!-- 2&#45;&gt;1 -->
<g id="edge5" class="edge">
<title>2&#45;&gt;1</title>
<path fill="none" stroke="grey" stroke-width="2" d="M73.3,-287.97C61.17,-278.81 47.81,-266.42 40,-252 29.75,-233.06 26.77,-208.69 26.2,-190.24"/>
<polygon fill="grey" stroke="grey" stroke-width="2" points="29.7,-190.12 26.11,-180.15 22.7,-190.18 29.7,-190.12"/>
</g>
<!-- 5 -->
<g id="node6" class="node">
<title>5</title>
<path fill="none" stroke="#56d86b" stroke-width="2" stroke-dasharray="5,2" d="M139,-252C139,-252 61,-252 61,-252 55,-252 49,-246 49,-240 49,-240 49,-228 49,-228 49,-222 55,-216 61,-216 61,-216 139,-216 139,-216 145,-216 151,-222 151,-228 151,-228 151,-240 151,-240 151,-246 145,-252 139,-252"/>
<text text-anchor="middle" x="100" y="-231.5" font-family="sans" font-size="10.00">pre_aln_NanoPlot</text>
</g>
<!-- 2&#45;&gt;5 -->
<g id="edge8" class="edge">
<title>2&#45;&gt;5</title>
<path fill="none" stroke="grey" stroke-width="2" d="M100,-287.7C100,-279.98 100,-270.71 100,-262.11"/>
<polygon fill="grey" stroke="grey" stroke-width="2" points="103.5,-262.1 100,-252.1 96.5,-262.1 103.5,-262.1"/>
</g>
<!-- 8 -->
<g id="node9" class="node">
<title>8</title>
<path fill="none" stroke="#ced856" stroke-width="2" stroke-dasharray="5,2" d="M211,-252C211,-252 181,-252 181,-252 175,-252 169,-246 169,-240 169,-240 169,-228 169,-228 169,-222 175,-216 181,-216 181,-216 211,-216 211,-216 217,-216 223,-222 223,-228 223,-228 223,-240 223,-240 223,-246 217,-252 211,-252"/>
<text text-anchor="middle" x="196" y="-231.5" font-family="sans" font-size="10.00">vulcan</text>
</g>
<!-- 2&#45;&gt;8 -->
<g id="edge11" class="edge">
<title>2&#45;&gt;8</title>
<path fill="none" stroke="grey" stroke-width="2" d="M123.73,-287.7C135.94,-278.8 150.99,-267.82 164.18,-258.2"/>
<polygon fill="grey" stroke="grey" stroke-width="2" points="166.52,-260.82 172.54,-252.1 162.4,-255.17 166.52,-260.82"/>
</g>
<!-- 3 -->
<g id="node4" class="node">
<title>3</title>
<path fill="none" stroke="#70d856" stroke-width="2" stroke-dasharray="5,2" d="M119,-396C119,-396 81,-396 81,-396 75,-396 69,-390 69,-384 69,-384 69,-372 69,-372 69,-366 75,-360 81,-360 81,-360 119,-360 119,-360 125,-360 131,-366 131,-372 131,-372 131,-384 131,-384 131,-390 125,-396 119,-396"/>
<text text-anchor="middle" x="100" y="-375.5" font-family="sans" font-size="10.00">porechop</text>
</g>
<!-- 3&#45;&gt;2 -->
<g id="edge6" class="edge">
<title>3&#45;&gt;2</title>
<path fill="none" stroke="grey" stroke-width="2" d="M100,-359.7C100,-351.98 100,-342.71 100,-334.11"/>
<polygon fill="grey" stroke="grey" stroke-width="2" points="103.5,-334.1 100,-324.1 96.5,-334.1 103.5,-334.1"/>
</g>
<!-- 4 -->
<g id="node5" class="node">
<title>4</title>
<path fill="none" stroke="#d8b456" stroke-width="2" stroke-dasharray="5,2" d="M120.5,-468C120.5,-468 79.5,-468 79.5,-468 73.5,-468 67.5,-462 67.5,-456 67.5,-456 67.5,-444 67.5,-444 67.5,-438 73.5,-432 79.5,-432 79.5,-432 120.5,-432 120.5,-432 126.5,-432 132.5,-438 132.5,-444 132.5,-444 132.5,-456 132.5,-456 132.5,-462 126.5,-468 120.5,-468"/>
<text text-anchor="middle" x="100" y="-453" font-family="sans" font-size="10.00">prep_data</text>
<text text-anchor="middle" x="100" y="-442" font-family="sans" font-size="10.00">sample: A</text>
</g>
<!-- 4&#45;&gt;3 -->
<g id="edge7" class="edge">
<title>4&#45;&gt;3</title>
<path fill="none" stroke="grey" stroke-width="2" d="M100,-431.7C100,-423.98 100,-414.71 100,-406.11"/>
<polygon fill="grey" stroke="grey" stroke-width="2" points="103.5,-406.1 100,-396.1 96.5,-406.1 103.5,-406.1"/>
</g>
<!-- 5&#45;&gt;0 -->
<g id="edge2" class="edge">
<title>5&#45;&gt;0</title>
<path fill="none" stroke="grey" stroke-width="2" d="M98.81,-215.82C97.17,-186.11 95.6,-123.35 107,-72 108.99,-63.05 112.39,-53.69 115.93,-45.37"/>
<polygon fill="grey" stroke="grey" stroke-width="2" points="119.16,-46.72 120.07,-36.16 112.78,-43.84 119.16,-46.72"/>
</g>
<!-- 6 -->
<g id="node7" class="node">
<title>6</title>
<path fill="none" stroke="#56d89a" stroke-width="2" stroke-dasharray="5,2" d="M214,-108C214,-108 128,-108 128,-108 122,-108 116,-102 116,-96 116,-96 116,-84 116,-84 116,-78 122,-72 128,-72 128,-72 214,-72 214,-72 220,-72 226,-78 226,-84 226,-84 226,-96 226,-96 226,-102 220,-108 214,-108"/>
<text text-anchor="middle" x="171" y="-87.5" font-family="sans" font-size="10.00">vulcan_final_report</text>
</g>
<!-- 6&#45;&gt;0 -->
<g id="edge3" class="edge">
<title>6&#45;&gt;0</title>
<path fill="none" stroke="grey" stroke-width="2" d="M160.62,-71.7C155.74,-63.56 149.81,-53.69 144.42,-44.7"/>
<polygon fill="grey" stroke="grey" stroke-width="2" points="147.41,-42.88 139.26,-36.1 141.41,-46.48 147.41,-42.88"/>
</g>
<!-- 7 -->
<g id="node8" class="node">
<title>7</title>
<path fill="none" stroke="#d88556" stroke-width="2" stroke-dasharray="5,2" d="M233,-180C233,-180 159,-180 159,-180 153,-180 147,-174 147,-168 147,-168 147,-156 147,-156 147,-150 153,-144 159,-144 159,-144 233,-144 233,-144 239,-144 245,-150 245,-156 245,-156 245,-168 245,-168 245,-174 239,-180 233,-180"/>
<text text-anchor="middle" x="196" y="-159.5" font-family="sans" font-size="10.00">vulcan_NanoPlot</text>
</g>
<!-- 7&#45;&gt;6 -->
<g id="edge9" class="edge">
<title>7&#45;&gt;6</title>
<path fill="none" stroke="grey" stroke-width="2" d="M189.82,-143.7C187,-135.81 183.61,-126.3 180.48,-117.55"/>
<polygon fill="grey" stroke="grey" stroke-width="2" points="183.77,-116.34 177.11,-108.1 177.18,-118.7 183.77,-116.34"/>
</g>
<!-- 9 -->
<g id="node10" class="node">
<title>9</title>
<path fill="none" stroke="#5682d8" stroke-width="2" stroke-dasharray="5,2" d="M286,-108C286,-108 256,-108 256,-108 250,-108 244,-102 244,-96 244,-96 244,-84 244,-84 244,-78 250,-72 256,-72 256,-72 286,-72 286,-72 292,-72 298,-78 298,-84 298,-84 298,-96 298,-96 298,-102 292,-108 286,-108"/>
<text text-anchor="middle" x="271" y="-87.5" font-family="sans" font-size="10.00">bench</text>
</g>
<!-- 7&#45;&gt;9 -->
<g id="edge12" class="edge">
<title>7&#45;&gt;9</title>
<path fill="none" stroke="grey" stroke-width="2" d="M214.54,-143.7C223.8,-135.05 235.16,-124.45 245.26,-115.03"/>
<polygon fill="grey" stroke="grey" stroke-width="2" points="247.75,-117.49 252.67,-108.1 242.98,-112.37 247.75,-117.49"/>
</g>
<!-- 8&#45;&gt;7 -->
<g id="edge10" class="edge">
<title>8&#45;&gt;7</title>
<path fill="none" stroke="grey" stroke-width="2" d="M196,-215.7C196,-207.98 196,-198.71 196,-190.11"/>
<polygon fill="grey" stroke="grey" stroke-width="2" points="199.5,-190.1 196,-180.1 192.5,-190.1 199.5,-190.1"/>
</g>
<!-- 9&#45;&gt;0 -->
<g id="edge4" class="edge">
<title>9&#45;&gt;0</title>
<path fill="none" stroke="grey" stroke-width="2" d="M243.96,-75.67C221.69,-64.69 189.93,-49.03 165.43,-36.96"/>
<polygon fill="grey" stroke="grey" stroke-width="2" points="166.94,-33.8 156.43,-32.52 163.85,-40.08 166.94,-33.8"/>
</g>
</g>
</svg>
